<?xml version="1.0" encoding="UTF-8"?>
<!-- Generated by jsxcad -->
<!DOCTYPE svg PUBLIC "-//W3C//DTD SVG 1.1 Tiny//EN" "http://www.w3.org/Graphics/SVG/1.1/DTD/svg11-tiny.dtd">
<svg baseProfile="tiny" height="226.0730964467006mm" width="77.00000000000004mm" viewBox="-5.0000000000000036 -11.652791878172597 77.00000000000004 226.0730964467006" version="1.1" stroke="black" stroke-width=".1" fill="none" xmlns="http://www.w3.org/2000/svg">
<path fill="#75dbf2" stroke="#75dbf2" d="M72 6.000000000000002 L0 6.000000000000002 L0 4.938578680203048 L72 4.938578680203048 z"/>
<path fill="#75dbf2" stroke="#75dbf2" d="M72 11.652791878172588 L0 11.652791878172588 L0 6.000000000000002 L72 6.000000000000002 z"/>
<path fill="#75dbf2" stroke="#75dbf2" d="M72 10.591370558375635 L0 10.591370558375635 L0 11.652791878172591 L72 11.652791878172591 z"/>
<path fill="#75dbf2" stroke="#75dbf2" d="M72 4.938578680203045 L0 4.938578680203045 L0 10.591370558375637 L72 10.591370558375637 z"/>
<path fill="#75dbf2" stroke="#75dbf2" d="M72 6.0000000000000036 L72 4.938578680203049 L72 10.591370558375637 L72 11.652791878172591 z"/>
<path fill="#75dbf2" stroke="#75dbf2" d="M0 6.0000000000000036 L0 11.652791878172591 L0 10.591370558375637 L0 4.938578680203049 z"/>
<path fill="#75dbf2" stroke="#75dbf2" d="M72 4.938578680203048 L0 4.938578680203048 L0 3.8771573604060943 L72 3.8771573604060943 z"/>
<path fill="#75dbf2" stroke="#75dbf2" d="M72 10.591370558375637 L0 10.591370558375637 L0 4.938578680203045 L72 4.938578680203045 z"/>
<path fill="#75dbf2" stroke="#75dbf2" d="M72 9.529949238578682 L0 9.529949238578682 L0 10.591370558375635 L72 10.591370558375635 z"/>
<path fill="#75dbf2" stroke="#75dbf2" d="M72 3.8771573604060943 L0 3.8771573604060943 L0 9.529949238578679 L72 9.529949238578679 z"/>
<path fill="#75dbf2" stroke="#75dbf2" d="M72 4.938578680203049 L72 3.8771573604060947 L72 9.529949238578682 L72 10.591370558375637 z"/>
<path fill="#75dbf2" stroke="#75dbf2" d="M0 4.938578680203049 L0 10.591370558375637 L0 9.529949238578682 L0 3.8771573604060947 z"/>
<path fill="#75dbf2" stroke="#75dbf2" d="M72 -6.560152284263955 L0 -6.560152284263955 L0 -7.621573604060909 L72 -7.621573604060909 z"/>
<path fill="#75dbf2" stroke="#75dbf2" d="M72 -0.9073604060913695 L0 -0.9073604060913695 L0 -6.56015228426396 L72 -6.56015228426396 z"/>
<path fill="#75dbf2" stroke="#75dbf2" d="M72 -1.9687817258883211 L0 -1.9687817258883211 L0 -0.9073604060913669 L72 -0.9073604060913669 z"/>
<path fill="#75dbf2" stroke="#75dbf2" d="M72 -7.621573604060911 L0 -7.621573604060911 L0 -1.968781725888326 L72 -1.968781725888326 z"/>
<path fill="#75dbf2" stroke="#75dbf2" d="M72 -6.560152284263955 L72 -7.6215736040609094 L72 -1.9687817258883211 L72 -0.9073604060913669 z"/>
<path fill="#75dbf2" stroke="#75dbf2" d="M0 -6.560152284263955 L0 -0.9073604060913669 L0 -1.9687817258883211 L0 -7.6215736040609094 z"/>
<path fill="#75dbf2" stroke="#75dbf2" d="M72 -18.058883248730957 L0 -18.058883248730957 L0 -19.120304568527914 L72 -19.120304568527914 z"/>
<path fill="#75dbf2" stroke="#75dbf2" d="M72 -12.406091370558375 L0 -12.406091370558375 L0 -18.058883248730965 L72 -18.058883248730965 z"/>
<path fill="#75dbf2" stroke="#75dbf2" d="M72 -13.467512690355324 L0 -13.467512690355324 L0 -12.406091370558372 L72 -12.406091370558372 z"/>
<path fill="#75dbf2" stroke="#75dbf2" d="M72 -19.12030456852792 L0 -19.12030456852792 L0 -13.467512690355331 L72 -13.467512690355331 z"/>
<path fill="#75dbf2" stroke="#75dbf2" d="M72 -18.058883248730957 L72 -19.120304568527914 L72 -13.467512690355326 L72 -12.406091370558372 z"/>
<path fill="#75dbf2" stroke="#75dbf2" d="M0 -18.058883248730957 L0 -12.406091370558372 L0 -13.467512690355326 L0 -19.120304568527914 z"/>
<path fill="#75dbf2" stroke="#75dbf2" d="M72 -29.55761421319796 L0 -29.55761421319796 L0 -30.619035532994918 L72 -30.619035532994918 z"/>
<path fill="#75dbf2" stroke="#75dbf2" d="M72 -23.90482233502538 L0 -23.90482233502538 L0 -29.557614213197972 L72 -29.557614213197972 z"/>
<path fill="#75dbf2" stroke="#75dbf2" d="M72 -24.966243654822325 L0 -24.966243654822325 L0 -23.904822335025376 L72 -23.904822335025376 z"/>
<path fill="#75dbf2" stroke="#75dbf2" d="M72 -30.61903553299493 L0 -30.61903553299493 L0 -24.96624365482234 L72 -24.96624365482234 z"/>
<path fill="#75dbf2" stroke="#75dbf2" d="M72 -29.557614213197965 L72 -30.619035532994918 L72 -24.96624365482233 L72 -23.904822335025376 z"/>
<path fill="#75dbf2" stroke="#75dbf2" d="M0 -29.557614213197965 L0 -23.904822335025376 L0 -24.96624365482233 L0 -30.619035532994918 z"/>
<path fill="#75dbf2" stroke="#75dbf2" d="M72 -41.056345177664966 L0 -41.056345177664966 L0 -42.117766497461915 L72 -42.117766497461915 z"/>
<path fill="#75dbf2" stroke="#75dbf2" d="M72 -35.40355329949239 L0 -35.40355329949239 L0 -41.05634517766498 L72 -41.05634517766498 z"/>
<path fill="#75dbf2" stroke="#75dbf2" d="M72 -36.46497461928933 L0 -36.46497461928933 L0 -35.40355329949238 L72 -35.40355329949238 z"/>
<path fill="#75dbf2" stroke="#75dbf2" d="M72 -42.11776649746192 L0 -42.11776649746192 L0 -36.46497461928934 L72 -36.46497461928934 z"/>
<path fill="#75dbf2" stroke="#75dbf2" d="M72 -41.056345177664966 L72 -42.11776649746192 L72 -36.464974619289336 L72 -35.40355329949238 z"/>
<path fill="#75dbf2" stroke="#75dbf2" d="M0 -41.056345177664966 L0 -35.40355329949238 L0 -36.464974619289336 L0 -42.11776649746192 z"/>
<path fill="#75dbf2" stroke="#75dbf2" d="M72 -52.555076142131966 L0 -52.555076142131966 L0 -53.61649746192893 L72 -53.61649746192893 z"/>
<path fill="#75dbf2" stroke="#75dbf2" d="M72 -46.902284263959395 L0 -46.902284263959395 L0 -52.55507614213198 L72 -52.55507614213198 z"/>
<path fill="#75dbf2" stroke="#75dbf2" d="M72 -47.96370558375634 L0 -47.96370558375634 L0 -46.90228426395937 L72 -46.90228426395937 z"/>
<path fill="#75dbf2" stroke="#75dbf2" d="M72 -53.61649746192893 L0 -53.61649746192893 L0 -47.96370558375635 L72 -47.96370558375635 z"/>
<path fill="#75dbf2" stroke="#75dbf2" d="M72 -52.55507614213197 L72 -53.61649746192893 L72 -47.96370558375634 L72 -46.90228426395938 z"/>
<path fill="#75dbf2" stroke="#75dbf2" d="M0 -52.55507614213197 L0 -46.90228426395938 L0 -47.96370558375634 L0 -53.61649746192893 z"/>
<path fill="#75dbf2" stroke="#75dbf2" d="M72 -64.05380710659897 L0 -64.05380710659897 L0 -65.11522842639593 L72 -65.11522842639593 z"/>
<path fill="#75dbf2" stroke="#75dbf2" d="M72 -58.40101522842641 L0 -58.40101522842641 L0 -64.05380710659898 L72 -64.05380710659898 z"/>
<path fill="#75dbf2" stroke="#75dbf2" d="M72 -59.46243654822334 L0 -59.46243654822334 L0 -58.40101522842639 L72 -58.40101522842639 z"/>
<path fill="#75dbf2" stroke="#75dbf2" d="M72 -65.11522842639594 L0 -65.11522842639594 L0 -59.46243654822335 L72 -59.46243654822335 z"/>
<path fill="#75dbf2" stroke="#75dbf2" d="M72 -64.05380710659898 L72 -65.11522842639593 L72 -59.462436548223344 L72 -58.40101522842639 z"/>
<path fill="#75dbf2" stroke="#75dbf2" d="M0 -64.05380710659898 L0 -58.40101522842639 L0 -59.462436548223344 L0 -65.11522842639593 z"/>
<path fill="#75dbf2" stroke="#75dbf2" d="M72 -75.55253807106597 L0 -75.55253807106597 L0 -76.61395939086293 L72 -76.61395939086293 z"/>
<path fill="#75dbf2" stroke="#75dbf2" d="M72 -69.8997461928934 L0 -69.8997461928934 L0 -75.552538071066 L72 -75.552538071066 z"/>
<path fill="#75dbf2" stroke="#75dbf2" d="M72 -70.96116751269034 L0 -70.96116751269034 L0 -69.89974619289339 L72 -69.89974619289339 z"/>
<path fill="#75dbf2" stroke="#75dbf2" d="M72 -76.61395939086293 L0 -76.61395939086293 L0 -70.96116751269035 L72 -70.96116751269035 z"/>
<path fill="#75dbf2" stroke="#75dbf2" d="M72 -75.55253807106598 L72 -76.61395939086293 L72 -70.96116751269034 L72 -69.89974619289339 z"/>
<path fill="#75dbf2" stroke="#75dbf2" d="M0 -75.55253807106598 L0 -69.89974619289339 L0 -70.96116751269034 L0 -76.61395939086293 z"/>
<path fill="#75dbf2" stroke="#75dbf2" d="M72 -87.05126903553298 L0 -87.05126903553298 L0 -88.11269035532993 L72 -88.11269035532993 z"/>
<path fill="#75dbf2" stroke="#75dbf2" d="M72 -81.39847715736039 L0 -81.39847715736039 L0 -87.05126903553298 L72 -87.05126903553298 z"/>
<path fill="#75dbf2" stroke="#75dbf2" d="M72 -82.45989847715734 L0 -82.45989847715734 L0 -81.39847715736039 L72 -81.39847715736039 z"/>
<path fill="#75dbf2" stroke="#75dbf2" d="M72 -88.11269035532996 L0 -88.11269035532996 L0 -82.45989847715737 L72 -82.45989847715737 z"/>
<path fill="#75dbf2" stroke="#75dbf2" d="M72 -87.05126903553298 L72 -88.11269035532995 L72 -82.45989847715735 L72 -81.39847715736039 z"/>
<path fill="#75dbf2" stroke="#75dbf2" d="M0 -87.05126903553298 L0 -81.39847715736039 L0 -82.45989847715735 L0 -88.11269035532995 z"/>
<path fill="#75dbf2" stroke="#75dbf2" d="M72 -98.54999999999998 L0 -98.54999999999998 L0 -99.61142131979693 L72 -99.61142131979693 z"/>
<path fill="#75dbf2" stroke="#75dbf2" d="M72 -92.89720812182742 L0 -92.89720812182742 L0 -98.55000000000001 L72 -98.55000000000001 z"/>
<path fill="#75dbf2" stroke="#75dbf2" d="M72 -93.95862944162434 L0 -93.95862944162434 L0 -92.89720812182739 L72 -92.89720812182739 z"/>
<path fill="#75dbf2" stroke="#75dbf2" d="M72 -99.61142131979695 L0 -99.61142131979695 L0 -93.95862944162435 L72 -93.95862944162435 z"/>
<path fill="#75dbf2" stroke="#75dbf2" d="M72 -98.54999999999998 L72 -99.61142131979695 L72 -93.95862944162435 L72 -92.8972081218274 z"/>
<path fill="#75dbf2" stroke="#75dbf2" d="M0 -98.54999999999998 L0 -92.8972081218274 L0 -93.95862944162435 L0 -99.61142131979695 z"/>
<path fill="#75dbf2" stroke="#75dbf2" d="M72 -110.04873096446698 L0 -110.04873096446698 L0 -111.11015228426393 L72 -111.11015228426393 z"/>
<path fill="#75dbf2" stroke="#75dbf2" d="M72 -104.3959390862944 L0 -104.3959390862944 L0 -110.048730964467 L72 -110.048730964467 z"/>
<path fill="#75dbf2" stroke="#75dbf2" d="M72 -105.45736040609135 L0 -105.45736040609135 L0 -104.3959390862944 L72 -104.3959390862944 z"/>
<path fill="#75dbf2" stroke="#75dbf2" d="M72 -111.11015228426396 L0 -111.11015228426396 L0 -105.45736040609138 L72 -105.45736040609138 z"/>
<path fill="#75dbf2" stroke="#75dbf2" d="M72 -110.048730964467 L72 -111.11015228426395 L72 -105.45736040609135 L72 -104.3959390862944 z"/>
<path fill="#75dbf2" stroke="#75dbf2" d="M0 -110.048730964467 L0 -104.3959390862944 L0 -105.45736040609135 L0 -111.11015228426395 z"/>
<path fill="#75dbf2" stroke="#75dbf2" d="M72 -121.547461928934 L0 -121.547461928934 L0 -122.60888324873095 L72 -122.60888324873095 z"/>
<path fill="#75dbf2" stroke="#75dbf2" d="M72 -115.89467005076142 L0 -115.89467005076142 L0 -121.54746192893401 L72 -121.54746192893401 z"/>
<path fill="#75dbf2" stroke="#75dbf2" d="M72 -116.95609137055837 L0 -116.95609137055837 L0 -115.89467005076139 L72 -115.89467005076139 z"/>
<path fill="#75dbf2" stroke="#75dbf2" d="M72 -122.60888324873096 L0 -122.60888324873096 L0 -116.95609137055837 L72 -116.95609137055837 z"/>
<path fill="#75dbf2" stroke="#75dbf2" d="M72 -121.547461928934 L72 -122.60888324873095 L72 -116.95609137055837 L72 -115.8946700507614 z"/>
<path fill="#75dbf2" stroke="#75dbf2" d="M0 -121.547461928934 L0 -115.8946700507614 L0 -116.95609137055837 L0 -122.60888324873095 z"/>
<path fill="#75dbf2" stroke="#75dbf2" d="M72 -133.04619289340098 L0 -133.04619289340098 L0 -134.10761421319796 L72 -134.10761421319796 z"/>
<path fill="#75dbf2" stroke="#75dbf2" d="M72 -127.39340101522842 L0 -127.39340101522842 L0 -133.046192893401 L72 -133.046192893401 z"/>
<path fill="#75dbf2" stroke="#75dbf2" d="M72 -128.45482233502534 L0 -128.45482233502534 L0 -127.3934010152284 L72 -127.3934010152284 z"/>
<path fill="#75dbf2" stroke="#75dbf2" d="M72 -134.10761421319796 L0 -134.10761421319796 L0 -128.45482233502537 L72 -128.45482233502537 z"/>
<path fill="#75dbf2" stroke="#75dbf2" d="M72 -133.04619289340098 L72 -134.10761421319796 L72 -128.45482233502537 L72 -127.39340101522842 z"/>
<path fill="#75dbf2" stroke="#75dbf2" d="M0 -133.04619289340098 L0 -127.39340101522842 L0 -128.45482233502537 L0 -134.10761421319796 z"/>
<path fill="#75dbf2" stroke="#75dbf2" d="M72 -144.54492385786799 L0 -144.54492385786799 L0 -145.60634517766493 L72 -145.60634517766493 z"/>
<path fill="#75dbf2" stroke="#75dbf2" d="M72 -138.89213197969542 L0 -138.89213197969542 L0 -144.544923857868 L72 -144.544923857868 z"/>
<path fill="#75dbf2" stroke="#75dbf2" d="M72 -139.95355329949237 L0 -139.95355329949237 L0 -138.8921319796954 L72 -138.8921319796954 z"/>
<path fill="#75dbf2" stroke="#75dbf2" d="M72 -145.60634517766496 L0 -145.60634517766496 L0 -139.95355329949237 L72 -139.95355329949237 z"/>
<path fill="#75dbf2" stroke="#75dbf2" d="M72 -144.544923857868 L72 -145.60634517766496 L72 -139.95355329949237 L72 -138.89213197969542 z"/>
<path fill="#75dbf2" stroke="#75dbf2" d="M0 -144.544923857868 L0 -138.89213197969542 L0 -139.95355329949237 L0 -145.60634517766496 z"/>
<path fill="#75dbf2" stroke="#75dbf2" d="M72 -156.043654822335 L0 -156.043654822335 L0 -157.10507614213194 L72 -157.10507614213194 z"/>
<path fill="#75dbf2" stroke="#75dbf2" d="M72 -150.39086294416242 L0 -150.39086294416242 L0 -156.04365482233501 L72 -156.04365482233501 z"/>
<path fill="#75dbf2" stroke="#75dbf2" d="M72 -151.45228426395937 L0 -151.45228426395937 L0 -150.39086294416242 L72 -150.39086294416242 z"/>
<path fill="#75dbf2" stroke="#75dbf2" d="M72 -157.10507614213196 L0 -157.10507614213196 L0 -151.45228426395943 L72 -151.45228426395943 z"/>
<path fill="#75dbf2" stroke="#75dbf2" d="M72 -156.04365482233501 L72 -157.10507614213196 L72 -151.45228426395937 L72 -150.39086294416242 z"/>
<path fill="#75dbf2" stroke="#75dbf2" d="M0 -156.04365482233501 L0 -150.39086294416242 L0 -151.45228426395937 L0 -157.10507614213196 z"/>
<path fill="#75dbf2" stroke="#75dbf2" d="M72 -167.54238578680201 L0 -167.54238578680201 L0 -168.60380710659896 L72 -168.60380710659896 z"/>
<path fill="#75dbf2" stroke="#75dbf2" d="M72 -161.88959390862945 L0 -161.88959390862945 L0 -167.54238578680201 L72 -167.54238578680201 z"/>
<path fill="#75dbf2" stroke="#75dbf2" d="M72 -162.95101522842637 L0 -162.95101522842637 L0 -161.8895939086294 L72 -161.8895939086294 z"/>
<path fill="#75dbf2" stroke="#75dbf2" d="M72 -168.603807106599 L0 -168.603807106599 L0 -162.9510152284264 L72 -162.9510152284264 z"/>
<path fill="#75dbf2" stroke="#75dbf2" d="M72 -167.54238578680201 L72 -168.60380710659896 L72 -162.95101522842637 L72 -161.88959390862942 z"/>
<path fill="#75dbf2" stroke="#75dbf2" d="M0 -167.54238578680201 L0 -161.88959390862942 L0 -162.95101522842637 L0 -168.60380710659896 z"/>
<path fill="#75dbf2" stroke="#75dbf2" d="M72 -179.04111675126902 L0 -179.04111675126902 L0 -180.10253807106596 L72 -180.10253807106596 z"/>
<path fill="#75dbf2" stroke="#75dbf2" d="M72 -173.38832487309645 L0 -173.38832487309645 L0 -179.04111675126904 L72 -179.04111675126904 z"/>
<path fill="#75dbf2" stroke="#75dbf2" d="M72 -174.44974619289337 L0 -174.44974619289337 L0 -173.38832487309642 L72 -173.38832487309642 z"/>
<path fill="#75dbf2" stroke="#75dbf2" d="M72 -180.10253807106596 L0 -180.10253807106596 L0 -174.4497461928934 L72 -174.4497461928934 z"/>
<path fill="#75dbf2" stroke="#75dbf2" d="M72 -179.04111675126902 L72 -180.10253807106596 L72 -174.44974619289337 L72 -173.38832487309642 z"/>
<path fill="#75dbf2" stroke="#75dbf2" d="M0 -179.04111675126902 L0 -173.38832487309642 L0 -174.44974619289337 L0 -180.10253807106596 z"/>
<path fill="#75dbf2" stroke="#75dbf2" d="M72 -190.539847715736 L0 -190.539847715736 L0 -191.60126903553294 L72 -191.60126903553294 z"/>
<path fill="#75dbf2" stroke="#75dbf2" d="M72 -184.88705583756342 L0 -184.88705583756342 L0 -190.53984771573604 L72 -190.53984771573604 z"/>
<path fill="#75dbf2" stroke="#75dbf2" d="M72 -185.94847715736037 L0 -185.94847715736037 L0 -184.88705583756342 L72 -184.88705583756342 z"/>
<path fill="#75dbf2" stroke="#75dbf2" d="M72 -191.60126903553302 L0 -191.60126903553302 L0 -185.9484771573604 L72 -185.9484771573604 z"/>
<path fill="#75dbf2" stroke="#75dbf2" d="M72 -190.53984771573602 L72 -191.60126903553297 L72 -185.9484771573604 L72 -184.88705583756342 z"/>
<path fill="#75dbf2" stroke="#75dbf2" d="M0 -190.53984771573602 L0 -184.88705583756342 L0 -185.9484771573604 L0 -191.60126903553297 z"/>
<path fill="#75dbf2" stroke="#75dbf2" d="M72 -191.77817258883243 L0 -191.77817258883243 L0 -192.83959390862938 L72 -192.83959390862938 z"/>
<path fill="#75dbf2" stroke="#75dbf2" d="M72 -186.12538071065993 L0 -186.12538071065993 L0 -191.7781725888325 L72 -191.7781725888325 z"/>
<path fill="#75dbf2" stroke="#75dbf2" d="M72 -187.18680203045682 L0 -187.18680203045682 L0 -186.12538071065987 L72 -186.12538071065987 z"/>
<path fill="#75dbf2" stroke="#75dbf2" d="M72 -192.83959390862947 L0 -192.83959390862947 L0 -187.18680203045685 L72 -187.18680203045685 z"/>
<path fill="#75dbf2" stroke="#75dbf2" d="M72 -191.77817258883246 L72 -192.8395939086294 L72 -187.18680203045685 L72 -186.12538071065987 z"/>
<path fill="#75dbf2" stroke="#75dbf2" d="M0 -191.77817258883246 L0 -186.12538071065987 L0 -187.18680203045685 L0 -192.8395939086294 z"/>
<path fill="#ff9065" stroke="#ff9065" d="M0 -214.4203045685279 L0 -78.55837563451776 L0 -77.4984771573604 L0 -213.36040609137055 z"/>
<path fill="#ff9065" stroke="#ff9065" d="M5.5 -214.42030456852788 L5.5 -78.55837563451774 L0 -78.55837563451774 L0 -214.42030456852788 z"/>
<path fill="#ff9065" stroke="#ff9065" d="M5.5 -213.36040609137055 L5.5 -77.4984771573604 L5.5 -78.55837563451776 L5.5 -214.4203045685279 z"/>
<path fill="#ff9065" stroke="#ff9065" d="M0 -213.36040609137055 L0 -77.49847715736038 L5.5 -77.49847715736038 L5.5 -213.36040609137055 z"/>
<path fill="#ff9065" stroke="#ff9065" d="M0 -214.4203045685279 L0 -213.36040609137058 L5.5 -213.36040609137058 L5.5 -214.4203045685279 z"/>
<path fill="#ff9065" stroke="#ff9065" d="M0 -78.55837563451776 L5.5 -78.55837563451776 L5.5 -77.4984771573604 L0 -77.4984771573604 z"/>
<path fill="#ff9065" stroke="#ff9065" d="M0 -78.55837563451776 L0 6.355329949238582 L0 7.4152284263959425 L0 -77.4984771573604 z"/>
<path fill="#ff9065" stroke="#ff9065" d="M5.5 -78.55837563451774 L5.5 6.355329949238581 L0 6.355329949238581 L0 -78.55837563451774 z"/>
<path fill="#ff9065" stroke="#ff9065" d="M5.5 -77.4984771573604 L5.5 7.4152284263959425 L5.5 6.355329949238582 L5.5 -78.55837563451776 z"/>
<path fill="#ff9065" stroke="#ff9065" d="M0 -77.4984771573604 L0 7.415228426395942 L5.5 7.415228426395942 L5.5 -77.4984771573604 z"/>
<path fill="#ff9065" stroke="#ff9065" d="M0 -78.55837563451776 L0 -77.4984771573604 L5.5 -77.4984771573604 L5.5 -78.55837563451776 z"/>
<path fill="#ff9065" stroke="#ff9065" d="M0 6.355329949238578 L5.5 6.355329949238578 L5.5 7.415228426395937 L0 7.415228426395937 z"/>
<path fill="#3c3c3c" stroke="#3c3c3c" d="M-5 2.472081218274115 L-5 9.53807106598985 L-5 2.461928934010156 L-5 -4.60406091370558 z"/>
<path fill="#3c3c3c" stroke="#3c3c3c" d="M5 2.4720812182741136 L5 9.538071065989847 L-5 9.538071065989847 L-5 2.4720812182741136 z"/>
<path fill="#3c3c3c" stroke="#3c3c3c" d="M5 -4.60406091370558 L5 2.461928934010156 L5 9.53807106598985 L5 2.472081218274115 z"/>
<path fill="#3c3c3c" stroke="#3c3c3c" d="M-5 -4.604060913705582 L-5 2.4619289340101522 L5 2.4619289340101522 L5 -4.604060913705582 z"/>
<path fill="#3c3c3c" stroke="#3c3c3c" d="M-5 2.472081218274115 L-5 -4.604060913705579 L5 -4.604060913705579 L5 2.472081218274115 z"/>
<path fill="#3c3c3c" stroke="#3c3c3c" d="M-5 9.538071065989849 L5 9.538071065989849 L5 2.4619289340101553 L-5 2.4619289340101553 z"/>
<path fill="#ff9065" stroke="#ff9065" d="M6.25 -214.4203045685279 L6.25 -78.55837563451776 L6.25 -77.4984771573604 L6.25 -213.36040609137055 z"/>
<path fill="#ff9065" stroke="#ff9065" d="M11.75 -214.42030456852788 L11.75 -78.55837563451774 L6.25 -78.55837563451774 L6.25 -214.42030456852788 z"/>
<path fill="#ff9065" stroke="#ff9065" d="M11.75 -213.36040609137055 L11.75 -77.4984771573604 L11.75 -78.55837563451776 L11.75 -214.4203045685279 z"/>
<path fill="#ff9065" stroke="#ff9065" d="M6.25 -213.36040609137055 L6.25 -77.49847715736038 L11.75 -77.49847715736038 L11.75 -213.36040609137055 z"/>
<path fill="#ff9065" stroke="#ff9065" d="M6.25 -214.4203045685279 L6.25 -213.36040609137058 L11.75 -213.36040609137058 L11.75 -214.4203045685279 z"/>
<path fill="#ff9065" stroke="#ff9065" d="M6.25 -78.55837563451776 L11.75 -78.55837563451776 L11.75 -77.4984771573604 L6.25 -77.4984771573604 z"/>
<path fill="#ff9065" stroke="#ff9065" d="M6.25 -78.55837563451776 L6.25 6.355329949238582 L6.25 7.4152284263959425 L6.25 -77.4984771573604 z"/>
<path fill="#ff9065" stroke="#ff9065" d="M11.75 -78.55837563451774 L11.75 6.355329949238581 L6.25 6.355329949238581 L6.25 -78.55837563451774 z"/>
<path fill="#ff9065" stroke="#ff9065" d="M11.75 -77.4984771573604 L11.75 7.4152284263959425 L11.75 6.355329949238582 L11.75 -78.55837563451776 z"/>
<path fill="#ff9065" stroke="#ff9065" d="M6.25 -77.4984771573604 L6.25 7.415228426395942 L11.75 7.415228426395942 L11.75 -77.4984771573604 z"/>
<path fill="#ff9065" stroke="#ff9065" d="M6.25 -78.55837563451776 L6.25 -77.4984771573604 L11.75 -77.4984771573604 L11.75 -78.55837563451776 z"/>
<path fill="#ff9065" stroke="#ff9065" d="M6.25 6.355329949238578 L11.75 6.355329949238578 L11.75 7.415228426395937 L6.25 7.415228426395937 z"/>
<path fill="#3c3c3c" stroke="#3c3c3c" d="M1.25 2.472081218274115 L1.25 9.53807106598985 L1.25 2.461928934010156 L1.25 -4.60406091370558 z"/>
<path fill="#3c3c3c" stroke="#3c3c3c" d="M11.25 2.4720812182741136 L11.25 9.538071065989847 L1.25 9.538071065989847 L1.25 2.4720812182741136 z"/>
<path fill="#3c3c3c" stroke="#3c3c3c" d="M11.25 -4.60406091370558 L11.25 2.461928934010156 L11.25 9.53807106598985 L11.25 2.472081218274115 z"/>
<path fill="#3c3c3c" stroke="#3c3c3c" d="M1.25 -4.604060913705582 L1.25 2.4619289340101522 L11.25 2.4619289340101522 L11.25 -4.604060913705582 z"/>
<path fill="#3c3c3c" stroke="#3c3c3c" d="M1.25 2.472081218274115 L1.25 -4.604060913705579 L11.25 -4.604060913705579 L11.25 2.472081218274115 z"/>
<path fill="#3c3c3c" stroke="#3c3c3c" d="M1.25 9.538071065989849 L11.25 9.538071065989849 L11.25 2.4619289340101553 L1.25 2.4619289340101553 z"/>
<path fill="#ff9065" stroke="#ff9065" d="M12.5 -214.4203045685279 L12.5 -78.55837563451776 L12.5 -77.4984771573604 L12.5 -213.36040609137055 z"/>
<path fill="#ff9065" stroke="#ff9065" d="M18 -214.42030456852788 L18 -78.55837563451774 L12.5 -78.55837563451774 L12.5 -214.42030456852788 z"/>
<path fill="#ff9065" stroke="#ff9065" d="M18 -213.36040609137055 L18 -77.4984771573604 L18 -78.55837563451776 L18 -214.4203045685279 z"/>
<path fill="#ff9065" stroke="#ff9065" d="M12.5 -213.36040609137055 L12.5 -77.49847715736038 L18 -77.49847715736038 L18 -213.36040609137055 z"/>
<path fill="#ff9065" stroke="#ff9065" d="M12.5 -214.4203045685279 L12.5 -213.36040609137058 L18 -213.36040609137058 L18 -214.4203045685279 z"/>
<path fill="#ff9065" stroke="#ff9065" d="M12.5 -78.55837563451776 L18 -78.55837563451776 L18 -77.4984771573604 L12.5 -77.4984771573604 z"/>
<path fill="#ff9065" stroke="#ff9065" d="M12.5 -78.55837563451776 L12.5 6.355329949238582 L12.5 7.4152284263959425 L12.5 -77.4984771573604 z"/>
<path fill="#ff9065" stroke="#ff9065" d="M18 -78.55837563451774 L18 6.355329949238581 L12.5 6.355329949238581 L12.5 -78.55837563451774 z"/>
<path fill="#ff9065" stroke="#ff9065" d="M18 -77.4984771573604 L18 7.4152284263959425 L18 6.355329949238582 L18 -78.55837563451776 z"/>
<path fill="#ff9065" stroke="#ff9065" d="M12.5 -77.4984771573604 L12.5 7.415228426395942 L18 7.415228426395942 L18 -77.4984771573604 z"/>
<path fill="#ff9065" stroke="#ff9065" d="M12.5 -78.55837563451776 L12.5 -77.4984771573604 L18 -77.4984771573604 L18 -78.55837563451776 z"/>
<path fill="#ff9065" stroke="#ff9065" d="M12.5 6.355329949238578 L18 6.355329949238578 L18 7.415228426395937 L12.5 7.415228426395937 z"/>
<path fill="#3c3c3c" stroke="#3c3c3c" d="M7.5 2.472081218274115 L7.5 9.53807106598985 L7.5 2.461928934010156 L7.5 -4.60406091370558 z"/>
<path fill="#3c3c3c" stroke="#3c3c3c" d="M17.5 2.4720812182741136 L17.5 9.538071065989847 L7.5 9.538071065989847 L7.5 2.4720812182741136 z"/>
<path fill="#3c3c3c" stroke="#3c3c3c" d="M17.5 -4.60406091370558 L17.5 2.461928934010156 L17.5 9.53807106598985 L17.5 2.472081218274115 z"/>
<path fill="#3c3c3c" stroke="#3c3c3c" d="M7.5 -4.604060913705582 L7.5 2.4619289340101522 L17.5 2.4619289340101522 L17.5 -4.604060913705582 z"/>
<path fill="#3c3c3c" stroke="#3c3c3c" d="M7.5 2.472081218274115 L7.5 -4.604060913705579 L17.5 -4.604060913705579 L17.5 2.472081218274115 z"/>
<path fill="#3c3c3c" stroke="#3c3c3c" d="M7.5 9.538071065989849 L17.5 9.538071065989849 L17.5 2.4619289340101553 L7.5 2.4619289340101553 z"/>
<path fill="#ff9065" stroke="#ff9065" d="M18.75 -214.4203045685279 L18.75 -78.55837563451776 L18.75 -77.4984771573604 L18.75 -213.36040609137055 z"/>
<path fill="#ff9065" stroke="#ff9065" d="M24.25 -214.42030456852788 L24.25 -78.55837563451774 L18.75 -78.55837563451774 L18.75 -214.42030456852788 z"/>
<path fill="#ff9065" stroke="#ff9065" d="M24.25 -213.36040609137055 L24.25 -77.4984771573604 L24.25 -78.55837563451776 L24.25 -214.4203045685279 z"/>
<path fill="#ff9065" stroke="#ff9065" d="M18.75 -213.36040609137055 L18.75 -77.49847715736038 L24.25 -77.49847715736038 L24.25 -213.36040609137055 z"/>
<path fill="#ff9065" stroke="#ff9065" d="M18.75 -214.4203045685279 L18.75 -213.36040609137058 L24.25 -213.36040609137058 L24.25 -214.4203045685279 z"/>
<path fill="#ff9065" stroke="#ff9065" d="M18.75 -78.55837563451776 L24.25 -78.55837563451776 L24.25 -77.4984771573604 L18.75 -77.4984771573604 z"/>
<path fill="#ff9065" stroke="#ff9065" d="M18.75 -78.55837563451776 L18.75 6.355329949238582 L18.75 7.4152284263959425 L18.75 -77.4984771573604 z"/>
<path fill="#ff9065" stroke="#ff9065" d="M24.25 -78.55837563451774 L24.25 6.355329949238581 L18.75 6.355329949238581 L18.75 -78.55837563451774 z"/>
<path fill="#ff9065" stroke="#ff9065" d="M24.25 -77.4984771573604 L24.25 7.4152284263959425 L24.25 6.355329949238582 L24.25 -78.55837563451776 z"/>
<path fill="#ff9065" stroke="#ff9065" d="M18.75 -77.4984771573604 L18.75 7.415228426395942 L24.25 7.415228426395942 L24.25 -77.4984771573604 z"/>
<path fill="#ff9065" stroke="#ff9065" d="M18.75 -78.55837563451776 L18.75 -77.4984771573604 L24.25 -77.4984771573604 L24.25 -78.55837563451776 z"/>
<path fill="#ff9065" stroke="#ff9065" d="M18.75 6.355329949238578 L24.25 6.355329949238578 L24.25 7.415228426395937 L18.75 7.415228426395937 z"/>
<path fill="#3c3c3c" stroke="#3c3c3c" d="M13.75 2.472081218274115 L13.75 9.53807106598985 L13.75 2.461928934010156 L13.75 -4.60406091370558 z"/>
<path fill="#3c3c3c" stroke="#3c3c3c" d="M23.75 2.4720812182741136 L23.75 9.538071065989847 L13.75 9.538071065989847 L13.75 2.4720812182741136 z"/>
<path fill="#3c3c3c" stroke="#3c3c3c" d="M23.75 -4.60406091370558 L23.75 2.461928934010156 L23.75 9.53807106598985 L23.75 2.472081218274115 z"/>
<path fill="#3c3c3c" stroke="#3c3c3c" d="M13.75 -4.604060913705582 L13.75 2.4619289340101522 L23.75 2.4619289340101522 L23.75 -4.604060913705582 z"/>
<path fill="#3c3c3c" stroke="#3c3c3c" d="M13.75 2.472081218274115 L13.75 -4.604060913705579 L23.75 -4.604060913705579 L23.75 2.472081218274115 z"/>
<path fill="#3c3c3c" stroke="#3c3c3c" d="M13.75 9.538071065989849 L23.75 9.538071065989849 L23.75 2.4619289340101553 L13.75 2.4619289340101553 z"/>
<path fill="#ff9065" stroke="#ff9065" d="M25 -214.4203045685279 L25 -78.55837563451776 L25 -77.4984771573604 L25 -213.36040609137055 z"/>
<path fill="#ff9065" stroke="#ff9065" d="M30.5 -214.42030456852788 L30.5 -78.55837563451774 L25 -78.55837563451774 L25 -214.42030456852788 z"/>
<path fill="#ff9065" stroke="#ff9065" d="M30.5 -213.36040609137055 L30.5 -77.4984771573604 L30.5 -78.55837563451776 L30.5 -214.4203045685279 z"/>
<path fill="#ff9065" stroke="#ff9065" d="M25 -213.36040609137055 L25 -77.49847715736038 L30.5 -77.49847715736038 L30.5 -213.36040609137055 z"/>
<path fill="#ff9065" stroke="#ff9065" d="M25 -214.4203045685279 L25 -213.36040609137058 L30.5 -213.36040609137058 L30.5 -214.4203045685279 z"/>
<path fill="#ff9065" stroke="#ff9065" d="M25 -78.55837563451776 L30.5 -78.55837563451776 L30.5 -77.4984771573604 L25 -77.4984771573604 z"/>
<path fill="#ff9065" stroke="#ff9065" d="M25 -78.55837563451776 L25 6.355329949238582 L25 7.4152284263959425 L25 -77.4984771573604 z"/>
<path fill="#ff9065" stroke="#ff9065" d="M30.5 -78.55837563451774 L30.5 6.355329949238581 L25 6.355329949238581 L25 -78.55837563451774 z"/>
<path fill="#ff9065" stroke="#ff9065" d="M30.5 -77.4984771573604 L30.5 7.4152284263959425 L30.5 6.355329949238582 L30.5 -78.55837563451776 z"/>
<path fill="#ff9065" stroke="#ff9065" d="M25 -77.4984771573604 L25 7.415228426395942 L30.5 7.415228426395942 L30.5 -77.4984771573604 z"/>
<path fill="#ff9065" stroke="#ff9065" d="M25 -78.55837563451776 L25 -77.4984771573604 L30.5 -77.4984771573604 L30.5 -78.55837563451776 z"/>
<path fill="#ff9065" stroke="#ff9065" d="M25 6.355329949238578 L30.5 6.355329949238578 L30.5 7.415228426395937 L25 7.415228426395937 z"/>
<path fill="#3c3c3c" stroke="#3c3c3c" d="M20 2.472081218274115 L20 9.53807106598985 L20 2.461928934010156 L20 -4.60406091370558 z"/>
<path fill="#3c3c3c" stroke="#3c3c3c" d="M30 2.4720812182741136 L30 9.538071065989847 L20 9.538071065989847 L20 2.4720812182741136 z"/>
<path fill="#3c3c3c" stroke="#3c3c3c" d="M30 -4.60406091370558 L30 2.461928934010156 L30 9.53807106598985 L30 2.472081218274115 z"/>
<path fill="#3c3c3c" stroke="#3c3c3c" d="M20 -4.604060913705582 L20 2.4619289340101522 L30 2.4619289340101522 L30 -4.604060913705582 z"/>
<path fill="#3c3c3c" stroke="#3c3c3c" d="M20 2.472081218274115 L20 -4.604060913705579 L30 -4.604060913705579 L30 2.472081218274115 z"/>
<path fill="#3c3c3c" stroke="#3c3c3c" d="M20 9.538071065989849 L30 9.538071065989849 L30 2.4619289340101553 L20 2.4619289340101553 z"/>
<path fill="#ff9065" stroke="#ff9065" d="M31.25 -214.4203045685279 L31.25 -78.55837563451776 L31.25 -77.4984771573604 L31.25 -213.36040609137055 z"/>
<path fill="#ff9065" stroke="#ff9065" d="M36.75 -214.42030456852788 L36.75 -78.55837563451774 L31.25 -78.55837563451774 L31.25 -214.42030456852788 z"/>
<path fill="#ff9065" stroke="#ff9065" d="M36.75 -213.36040609137055 L36.75 -77.4984771573604 L36.75 -78.55837563451776 L36.75 -214.4203045685279 z"/>
<path fill="#ff9065" stroke="#ff9065" d="M31.25 -213.36040609137055 L31.25 -77.49847715736038 L36.75 -77.49847715736038 L36.75 -213.36040609137055 z"/>
<path fill="#ff9065" stroke="#ff9065" d="M31.25 -214.4203045685279 L31.25 -213.36040609137058 L36.75 -213.36040609137058 L36.75 -214.4203045685279 z"/>
<path fill="#ff9065" stroke="#ff9065" d="M31.25 -78.55837563451776 L36.75 -78.55837563451776 L36.75 -77.4984771573604 L31.25 -77.4984771573604 z"/>
<path fill="#ff9065" stroke="#ff9065" d="M31.25 -78.55837563451776 L31.25 6.355329949238582 L31.25 7.4152284263959425 L31.25 -77.4984771573604 z"/>
<path fill="#ff9065" stroke="#ff9065" d="M36.75 -78.55837563451774 L36.75 6.355329949238581 L31.25 6.355329949238581 L31.25 -78.55837563451774 z"/>
<path fill="#ff9065" stroke="#ff9065" d="M36.75 -77.4984771573604 L36.75 7.4152284263959425 L36.75 6.355329949238582 L36.75 -78.55837563451776 z"/>
<path fill="#ff9065" stroke="#ff9065" d="M31.25 -77.4984771573604 L31.25 7.415228426395942 L36.75 7.415228426395942 L36.75 -77.4984771573604 z"/>
<path fill="#ff9065" stroke="#ff9065" d="M31.25 -78.55837563451776 L31.25 -77.4984771573604 L36.75 -77.4984771573604 L36.75 -78.55837563451776 z"/>
<path fill="#ff9065" stroke="#ff9065" d="M31.25 6.355329949238578 L36.75 6.355329949238578 L36.75 7.415228426395937 L31.25 7.415228426395937 z"/>
<path fill="#3c3c3c" stroke="#3c3c3c" d="M26.25 2.472081218274115 L26.25 9.53807106598985 L26.25 2.461928934010156 L26.25 -4.60406091370558 z"/>
<path fill="#3c3c3c" stroke="#3c3c3c" d="M36.25 2.4720812182741136 L36.25 9.538071065989847 L26.25 9.538071065989847 L26.25 2.4720812182741136 z"/>
<path fill="#3c3c3c" stroke="#3c3c3c" d="M36.25 -4.60406091370558 L36.25 2.461928934010156 L36.25 9.53807106598985 L36.25 2.472081218274115 z"/>
<path fill="#3c3c3c" stroke="#3c3c3c" d="M26.25 -4.604060913705582 L26.25 2.4619289340101522 L36.25 2.4619289340101522 L36.25 -4.604060913705582 z"/>
<path fill="#3c3c3c" stroke="#3c3c3c" d="M26.25 2.472081218274115 L26.25 -4.604060913705579 L36.25 -4.604060913705579 L36.25 2.472081218274115 z"/>
<path fill="#3c3c3c" stroke="#3c3c3c" d="M26.25 9.538071065989849 L36.25 9.538071065989849 L36.25 2.4619289340101553 L26.25 2.4619289340101553 z"/>
<path fill="#ff9065" stroke="#ff9065" d="M37.5 -214.4203045685279 L37.5 -78.55837563451776 L37.5 -77.4984771573604 L37.5 -213.36040609137055 z"/>
<path fill="#ff9065" stroke="#ff9065" d="M43 -214.42030456852788 L43 -78.55837563451774 L37.5 -78.55837563451774 L37.5 -214.42030456852788 z"/>
<path fill="#ff9065" stroke="#ff9065" d="M43 -213.36040609137055 L43 -77.4984771573604 L43 -78.55837563451776 L43 -214.4203045685279 z"/>
<path fill="#ff9065" stroke="#ff9065" d="M37.5 -213.36040609137055 L37.5 -77.49847715736038 L43 -77.49847715736038 L43 -213.36040609137055 z"/>
<path fill="#ff9065" stroke="#ff9065" d="M37.5 -214.4203045685279 L37.5 -213.36040609137058 L43 -213.36040609137058 L43 -214.4203045685279 z"/>
<path fill="#ff9065" stroke="#ff9065" d="M37.5 -78.55837563451776 L43 -78.55837563451776 L43 -77.4984771573604 L37.5 -77.4984771573604 z"/>
<path fill="#ff9065" stroke="#ff9065" d="M37.5 -78.55837563451776 L37.5 6.355329949238582 L37.5 7.4152284263959425 L37.5 -77.4984771573604 z"/>
<path fill="#ff9065" stroke="#ff9065" d="M43 -78.55837563451774 L43 6.355329949238581 L37.5 6.355329949238581 L37.5 -78.55837563451774 z"/>
<path fill="#ff9065" stroke="#ff9065" d="M43 -77.4984771573604 L43 7.4152284263959425 L43 6.355329949238582 L43 -78.55837563451776 z"/>
<path fill="#ff9065" stroke="#ff9065" d="M37.5 -77.4984771573604 L37.5 7.415228426395942 L43 7.415228426395942 L43 -77.4984771573604 z"/>
<path fill="#ff9065" stroke="#ff9065" d="M37.5 -78.55837563451776 L37.5 -77.4984771573604 L43 -77.4984771573604 L43 -78.55837563451776 z"/>
<path fill="#ff9065" stroke="#ff9065" d="M37.5 6.355329949238578 L43 6.355329949238578 L43 7.415228426395937 L37.5 7.415228426395937 z"/>
<path fill="#3c3c3c" stroke="#3c3c3c" d="M32.5 2.472081218274115 L32.5 9.53807106598985 L32.5 2.461928934010156 L32.5 -4.60406091370558 z"/>
<path fill="#3c3c3c" stroke="#3c3c3c" d="M42.5 2.4720812182741136 L42.5 9.538071065989847 L32.5 9.538071065989847 L32.5 2.4720812182741136 z"/>
<path fill="#3c3c3c" stroke="#3c3c3c" d="M42.5 -4.60406091370558 L42.5 2.461928934010156 L42.5 9.53807106598985 L42.5 2.472081218274115 z"/>
<path fill="#3c3c3c" stroke="#3c3c3c" d="M32.5 -4.604060913705582 L32.5 2.4619289340101522 L42.5 2.4619289340101522 L42.5 -4.604060913705582 z"/>
<path fill="#3c3c3c" stroke="#3c3c3c" d="M32.5 2.472081218274115 L32.5 -4.604060913705579 L42.5 -4.604060913705579 L42.5 2.472081218274115 z"/>
<path fill="#3c3c3c" stroke="#3c3c3c" d="M32.5 9.538071065989849 L42.5 9.538071065989849 L42.5 2.4619289340101553 L32.5 2.4619289340101553 z"/>
<path fill="#ff9065" stroke="#ff9065" d="M43.75 -214.4203045685279 L43.75 -78.55837563451776 L43.75 -77.4984771573604 L43.75 -213.36040609137055 z"/>
<path fill="#ff9065" stroke="#ff9065" d="M49.25 -214.42030456852788 L49.25 -78.55837563451774 L43.75 -78.55837563451774 L43.75 -214.42030456852788 z"/>
<path fill="#ff9065" stroke="#ff9065" d="M49.25 -213.36040609137055 L49.25 -77.4984771573604 L49.25 -78.55837563451776 L49.25 -214.4203045685279 z"/>
<path fill="#ff9065" stroke="#ff9065" d="M43.75 -213.36040609137055 L43.75 -77.49847715736038 L49.25 -77.49847715736038 L49.25 -213.36040609137055 z"/>
<path fill="#ff9065" stroke="#ff9065" d="M43.75 -214.4203045685279 L43.75 -213.36040609137058 L49.25 -213.36040609137058 L49.25 -214.4203045685279 z"/>
<path fill="#ff9065" stroke="#ff9065" d="M43.75 -78.55837563451776 L49.25 -78.55837563451776 L49.25 -77.4984771573604 L43.75 -77.4984771573604 z"/>
<path fill="#ff9065" stroke="#ff9065" d="M43.75 -78.55837563451776 L43.75 6.355329949238582 L43.75 7.4152284263959425 L43.75 -77.4984771573604 z"/>
<path fill="#ff9065" stroke="#ff9065" d="M49.25 -78.55837563451774 L49.25 6.355329949238581 L43.75 6.355329949238581 L43.75 -78.55837563451774 z"/>
<path fill="#ff9065" stroke="#ff9065" d="M49.25 -77.4984771573604 L49.25 7.4152284263959425 L49.25 6.355329949238582 L49.25 -78.55837563451776 z"/>
<path fill="#ff9065" stroke="#ff9065" d="M43.75 -77.4984771573604 L43.75 7.415228426395942 L49.25 7.415228426395942 L49.25 -77.4984771573604 z"/>
<path fill="#ff9065" stroke="#ff9065" d="M43.75 -78.55837563451776 L43.75 -77.4984771573604 L49.25 -77.4984771573604 L49.25 -78.55837563451776 z"/>
<path fill="#ff9065" stroke="#ff9065" d="M43.75 6.355329949238578 L49.25 6.355329949238578 L49.25 7.415228426395937 L43.75 7.415228426395937 z"/>
<path fill="#3c3c3c" stroke="#3c3c3c" d="M38.75 2.472081218274115 L38.75 9.53807106598985 L38.75 2.461928934010156 L38.75 -4.60406091370558 z"/>
<path fill="#3c3c3c" stroke="#3c3c3c" d="M48.75 2.4720812182741136 L48.75 9.538071065989847 L38.75 9.538071065989847 L38.75 2.4720812182741136 z"/>
<path fill="#3c3c3c" stroke="#3c3c3c" d="M48.75 -4.60406091370558 L48.75 2.461928934010156 L48.75 9.53807106598985 L48.75 2.472081218274115 z"/>
<path fill="#3c3c3c" stroke="#3c3c3c" d="M38.75 -4.604060913705582 L38.75 2.4619289340101522 L48.75 2.4619289340101522 L48.75 -4.604060913705582 z"/>
<path fill="#3c3c3c" stroke="#3c3c3c" d="M38.75 2.472081218274115 L38.75 -4.604060913705579 L48.75 -4.604060913705579 L48.75 2.472081218274115 z"/>
<path fill="#3c3c3c" stroke="#3c3c3c" d="M38.75 9.538071065989849 L48.75 9.538071065989849 L48.75 2.4619289340101553 L38.75 2.4619289340101553 z"/>
<path fill="#ff9065" stroke="#ff9065" d="M50 -214.4203045685279 L50 -78.55837563451776 L50 -77.4984771573604 L50 -213.36040609137055 z"/>
<path fill="#ff9065" stroke="#ff9065" d="M55.5 -214.42030456852788 L55.5 -78.55837563451774 L50 -78.55837563451774 L50 -214.42030456852788 z"/>
<path fill="#ff9065" stroke="#ff9065" d="M55.5 -213.36040609137055 L55.5 -77.4984771573604 L55.5 -78.55837563451776 L55.5 -214.4203045685279 z"/>
<path fill="#ff9065" stroke="#ff9065" d="M50 -213.36040609137055 L50 -77.49847715736038 L55.5 -77.49847715736038 L55.5 -213.36040609137055 z"/>
<path fill="#ff9065" stroke="#ff9065" d="M50 -214.4203045685279 L50 -213.36040609137058 L55.5 -213.36040609137058 L55.5 -214.4203045685279 z"/>
<path fill="#ff9065" stroke="#ff9065" d="M50 -78.55837563451776 L55.5 -78.55837563451776 L55.5 -77.4984771573604 L50 -77.4984771573604 z"/>
<path fill="#ff9065" stroke="#ff9065" d="M50 -78.55837563451776 L50 6.355329949238582 L50 7.4152284263959425 L50 -77.4984771573604 z"/>
<path fill="#ff9065" stroke="#ff9065" d="M55.5 -78.55837563451774 L55.5 6.355329949238581 L50 6.355329949238581 L50 -78.55837563451774 z"/>
<path fill="#ff9065" stroke="#ff9065" d="M55.5 -77.4984771573604 L55.5 7.4152284263959425 L55.5 6.355329949238582 L55.5 -78.55837563451776 z"/>
<path fill="#ff9065" stroke="#ff9065" d="M50 -77.4984771573604 L50 7.415228426395942 L55.5 7.415228426395942 L55.5 -77.4984771573604 z"/>
<path fill="#ff9065" stroke="#ff9065" d="M50 -78.55837563451776 L50 -77.4984771573604 L55.5 -77.4984771573604 L55.5 -78.55837563451776 z"/>
<path fill="#ff9065" stroke="#ff9065" d="M50 6.355329949238578 L55.5 6.355329949238578 L55.5 7.415228426395937 L50 7.415228426395937 z"/>
<path fill="#3c3c3c" stroke="#3c3c3c" d="M45 2.472081218274115 L45 9.53807106598985 L45 2.461928934010156 L45 -4.60406091370558 z"/>
<path fill="#3c3c3c" stroke="#3c3c3c" d="M55 2.4720812182741136 L55 9.538071065989847 L45 9.538071065989847 L45 2.4720812182741136 z"/>
<path fill="#3c3c3c" stroke="#3c3c3c" d="M55 -4.60406091370558 L55 2.461928934010156 L55 9.53807106598985 L55 2.472081218274115 z"/>
<path fill="#3c3c3c" stroke="#3c3c3c" d="M45 -4.604060913705582 L45 2.4619289340101522 L55 2.4619289340101522 L55 -4.604060913705582 z"/>
<path fill="#3c3c3c" stroke="#3c3c3c" d="M45 2.472081218274115 L45 -4.604060913705579 L55 -4.604060913705579 L55 2.472081218274115 z"/>
<path fill="#3c3c3c" stroke="#3c3c3c" d="M45 9.538071065989849 L55 9.538071065989849 L55 2.4619289340101553 L45 2.4619289340101553 z"/>
<path fill="#ff9065" stroke="#ff9065" d="M56.25 -214.4203045685279 L56.25 -78.55837563451776 L56.25 -77.4984771573604 L56.25 -213.36040609137055 z"/>
<path fill="#ff9065" stroke="#ff9065" d="M61.75 -214.42030456852788 L61.75 -78.55837563451774 L56.25 -78.55837563451774 L56.25 -214.42030456852788 z"/>
<path fill="#ff9065" stroke="#ff9065" d="M61.75 -213.36040609137055 L61.75 -77.4984771573604 L61.75 -78.55837563451776 L61.75 -214.4203045685279 z"/>
<path fill="#ff9065" stroke="#ff9065" d="M56.25 -213.36040609137055 L56.25 -77.49847715736038 L61.75 -77.49847715736038 L61.75 -213.36040609137055 z"/>
<path fill="#ff9065" stroke="#ff9065" d="M56.25 -214.4203045685279 L56.25 -213.36040609137058 L61.75 -213.36040609137058 L61.75 -214.4203045685279 z"/>
<path fill="#ff9065" stroke="#ff9065" d="M56.25 -78.55837563451776 L61.75 -78.55837563451776 L61.75 -77.4984771573604 L56.25 -77.4984771573604 z"/>
<path fill="#ff9065" stroke="#ff9065" d="M56.25 -78.55837563451776 L56.25 6.355329949238582 L56.25 7.4152284263959425 L56.25 -77.4984771573604 z"/>
<path fill="#ff9065" stroke="#ff9065" d="M61.75 -78.55837563451774 L61.75 6.355329949238581 L56.25 6.355329949238581 L56.25 -78.55837563451774 z"/>
<path fill="#ff9065" stroke="#ff9065" d="M61.75 -77.4984771573604 L61.75 7.4152284263959425 L61.75 6.355329949238582 L61.75 -78.55837563451776 z"/>
<path fill="#ff9065" stroke="#ff9065" d="M56.25 -77.4984771573604 L56.25 7.415228426395942 L61.75 7.415228426395942 L61.75 -77.4984771573604 z"/>
<path fill="#ff9065" stroke="#ff9065" d="M56.25 -78.55837563451776 L56.25 -77.4984771573604 L61.75 -77.4984771573604 L61.75 -78.55837563451776 z"/>
<path fill="#ff9065" stroke="#ff9065" d="M56.25 6.355329949238578 L61.75 6.355329949238578 L61.75 7.415228426395937 L56.25 7.415228426395937 z"/>
<path fill="#3c3c3c" stroke="#3c3c3c" d="M51.25 2.472081218274115 L51.25 9.53807106598985 L51.25 2.461928934010156 L51.25 -4.60406091370558 z"/>
<path fill="#3c3c3c" stroke="#3c3c3c" d="M61.25 2.4720812182741136 L61.25 9.538071065989847 L51.25 9.538071065989847 L51.25 2.4720812182741136 z"/>
<path fill="#3c3c3c" stroke="#3c3c3c" d="M61.25 -4.60406091370558 L61.25 2.461928934010156 L61.25 9.53807106598985 L61.25 2.472081218274115 z"/>
<path fill="#3c3c3c" stroke="#3c3c3c" d="M51.25 -4.604060913705582 L51.25 2.4619289340101522 L61.25 2.4619289340101522 L61.25 -4.604060913705582 z"/>
<path fill="#3c3c3c" stroke="#3c3c3c" d="M51.25 2.472081218274115 L51.25 -4.604060913705579 L61.25 -4.604060913705579 L61.25 2.472081218274115 z"/>
<path fill="#3c3c3c" stroke="#3c3c3c" d="M51.25 9.538071065989849 L61.25 9.538071065989849 L61.25 2.4619289340101553 L51.25 2.4619289340101553 z"/>
<path fill="#ff9065" stroke="#ff9065" d="M62.5 -214.4203045685279 L62.5 -78.55837563451776 L62.5 -77.4984771573604 L62.5 -213.36040609137055 z"/>
<path fill="#ff9065" stroke="#ff9065" d="M68 -214.42030456852788 L68 -78.55837563451774 L62.5 -78.55837563451774 L62.5 -214.42030456852788 z"/>
<path fill="#ff9065" stroke="#ff9065" d="M68 -213.36040609137055 L68 -77.4984771573604 L68 -78.55837563451776 L68 -214.4203045685279 z"/>
<path fill="#ff9065" stroke="#ff9065" d="M62.5 -213.36040609137055 L62.5 -77.49847715736038 L68 -77.49847715736038 L68 -213.36040609137055 z"/>
<path fill="#ff9065" stroke="#ff9065" d="M62.5 -214.4203045685279 L62.5 -213.36040609137058 L68 -213.36040609137058 L68 -214.4203045685279 z"/>
<path fill="#ff9065" stroke="#ff9065" d="M62.5 -78.55837563451776 L68 -78.55837563451776 L68 -77.4984771573604 L62.5 -77.4984771573604 z"/>
<path fill="#ff9065" stroke="#ff9065" d="M62.5 -78.55837563451776 L62.5 6.355329949238582 L62.5 7.4152284263959425 L62.5 -77.4984771573604 z"/>
<path fill="#ff9065" stroke="#ff9065" d="M68 -78.55837563451774 L68 6.355329949238581 L62.5 6.355329949238581 L62.5 -78.55837563451774 z"/>
<path fill="#ff9065" stroke="#ff9065" d="M68 -77.4984771573604 L68 7.4152284263959425 L68 6.355329949238582 L68 -78.55837563451776 z"/>
<path fill="#ff9065" stroke="#ff9065" d="M62.5 -77.4984771573604 L62.5 7.415228426395942 L68 7.415228426395942 L68 -77.4984771573604 z"/>
<path fill="#ff9065" stroke="#ff9065" d="M62.5 -78.55837563451776 L62.5 -77.4984771573604 L68 -77.4984771573604 L68 -78.55837563451776 z"/>
<path fill="#ff9065" stroke="#ff9065" d="M62.5 6.355329949238578 L68 6.355329949238578 L68 7.415228426395937 L62.5 7.415228426395937 z"/>
<path fill="#3c3c3c" stroke="#3c3c3c" d="M57.5 2.472081218274115 L57.5 9.53807106598985 L57.5 2.461928934010156 L57.5 -4.60406091370558 z"/>
<path fill="#3c3c3c" stroke="#3c3c3c" d="M67.5 2.4720812182741136 L67.5 9.538071065989847 L57.5 9.538071065989847 L57.5 2.4720812182741136 z"/>
<path fill="#3c3c3c" stroke="#3c3c3c" d="M67.5 -4.60406091370558 L67.5 2.461928934010156 L67.5 9.53807106598985 L67.5 2.472081218274115 z"/>
<path fill="#3c3c3c" stroke="#3c3c3c" d="M57.5 -4.604060913705582 L57.5 2.4619289340101522 L67.5 2.4619289340101522 L67.5 -4.604060913705582 z"/>
<path fill="#3c3c3c" stroke="#3c3c3c" d="M57.5 2.472081218274115 L57.5 -4.604060913705579 L67.5 -4.604060913705579 L67.5 2.472081218274115 z"/>
<path fill="#3c3c3c" stroke="#3c3c3c" d="M57.5 9.538071065989849 L67.5 9.538071065989849 L67.5 2.4619289340101553 L57.5 2.4619289340101553 z"/>
</svg>