<?xml version="1.0" encoding="UTF-8"?>
<!-- Generated by jsxcad -->
<!DOCTYPE svg PUBLIC "-//W3C//DTD SVG 1.1 Tiny//EN" "http://www.w3.org/Graphics/SVG/1.1/DTD/svg11-tiny.dtd">
<svg baseProfile="tiny" height="72.00000000000006mm" width="288.0000000000002mm" viewBox="-2.0000000000000018 -1.5e-323 288.0000000000002 72.00000000000006" version="1.1" stroke="black" stroke-width=".1" fill="none" xmlns="http://www.w3.org/2000/svg">
<path fill="#a52a2a" stroke="#a52a2a" d="M0 0 L1.5 0 L1.5 -71.99999999999999 L0 -71.99999999999999 z"/>
<path fill="#a52a2a" stroke="#a52a2a" d="M0 0 L0 0 L0 -72 L0 -72 z"/>
<path fill="#a52a2a" stroke="#a52a2a" d="M1.5 0 L0 0 L0 -71.99999999999999 L1.5 -71.99999999999999 z"/>
<path fill="#a52a2a" stroke="#a52a2a" d="M1.5 0 L1.5 0 L1.5 -72 L1.5 -72 z"/>
<path fill="#a52a2a" stroke="#a52a2a" d="M0 -72 L0 -72 L1.5 -72 L1.5 -72 z"/>
<path fill="#a52a2a" stroke="#a52a2a" d="M0 0 L0 0 L1.5 0 L1.5 0 z"/>
<path fill="#a52a2a" stroke="#a52a2a" d="M1.5 0 L3 0 L3 -71.99999999999999 L1.5 -71.99999999999999 z"/>
<path fill="#a52a2a" stroke="#a52a2a" d="M1.5 0 L1.5 0 L1.5 -72 L1.5 -72 z"/>
<path fill="#a52a2a" stroke="#a52a2a" d="M3 0 L1.5 0 L1.5 -71.99999999999999 L3 -71.99999999999999 z"/>
<path fill="#a52a2a" stroke="#a52a2a" d="M3 0 L3 0 L3 -72 L3 -72 z"/>
<path fill="#a52a2a" stroke="#a52a2a" d="M1.5 -72 L3 -72 L3 -72 L1.5 -72 z"/>
<path fill="#a52a2a" stroke="#a52a2a" d="M3 0 L1.5 0 L1.5 0 L3 0 z"/>
<path fill="#a52a2a" stroke="#a52a2a" d="M17 0 L18.5 0 L18.5 -71.99999999999999 L17 -71.99999999999999 z"/>
<path fill="#a52a2a" stroke="#a52a2a" d="M17 0 L17 0 L17 -72 L17 -72 z"/>
<path fill="#a52a2a" stroke="#a52a2a" d="M18.5 0 L17 0 L17 -71.99999999999999 L18.5 -71.99999999999999 z"/>
<path fill="#a52a2a" stroke="#a52a2a" d="M18.5 0 L18.5 0 L18.5 -72 L18.5 -72 z"/>
<path fill="#a52a2a" stroke="#a52a2a" d="M17 -72 L18.5 -72 L18.5 -72 L17 -72 z"/>
<path fill="#a52a2a" stroke="#a52a2a" d="M18.5 0 L17 0 L17 0 L18.5 0 z"/>
<path fill="#a52a2a" stroke="#a52a2a" d="M32.5 0 L34 0 L34 -71.99999999999999 L32.5 -71.99999999999999 z"/>
<path fill="#a52a2a" stroke="#a52a2a" d="M32.5 0 L32.5 0 L32.5 -72 L32.5 -72 z"/>
<path fill="#a52a2a" stroke="#a52a2a" d="M34 0 L32.5 0 L32.5 -71.99999999999999 L34 -71.99999999999999 z"/>
<path fill="#a52a2a" stroke="#a52a2a" d="M34 0 L34 0 L34 -72 L34 -72 z"/>
<path fill="#a52a2a" stroke="#a52a2a" d="M32.5 -72 L34 -72 L34 -72 L32.5 -72 z"/>
<path fill="#a52a2a" stroke="#a52a2a" d="M34 0 L32.5 0 L32.5 0 L34 0 z"/>
<path fill="#a52a2a" stroke="#a52a2a" d="M48 0 L49.5 0 L49.5 -71.99999999999999 L48 -71.99999999999999 z"/>
<path fill="#a52a2a" stroke="#a52a2a" d="M48 0 L48 0 L48 -72 L48 -72 z"/>
<path fill="#a52a2a" stroke="#a52a2a" d="M49.5 0 L48 0 L48 -71.99999999999999 L49.5 -71.99999999999999 z"/>
<path fill="#a52a2a" stroke="#a52a2a" d="M49.5 0 L49.5 0 L49.5 -72 L49.5 -72 z"/>
<path fill="#a52a2a" stroke="#a52a2a" d="M48 -72 L49.5 -72 L49.5 -72 L48 -72 z"/>
<path fill="#a52a2a" stroke="#a52a2a" d="M49.5 0 L48 0 L48 0 L49.5 0 z"/>
<path fill="#a52a2a" stroke="#a52a2a" d="M63.5 0 L65 0 L65 -71.99999999999999 L63.5 -71.99999999999999 z"/>
<path fill="#a52a2a" stroke="#a52a2a" d="M63.5 0 L63.5 0 L63.5 -72 L63.5 -72 z"/>
<path fill="#a52a2a" stroke="#a52a2a" d="M65 0 L63.5 0 L63.5 -71.99999999999999 L65 -71.99999999999999 z"/>
<path fill="#a52a2a" stroke="#a52a2a" d="M65 0 L65 0 L65 -72 L65 -72 z"/>
<path fill="#a52a2a" stroke="#a52a2a" d="M63.5 -72 L65 -72 L65 -72 L63.5 -72 z"/>
<path fill="#a52a2a" stroke="#a52a2a" d="M65 0 L63.5 0 L63.5 0 L65 0 z"/>
<path fill="#a52a2a" stroke="#a52a2a" d="M79 0 L80.5 0 L80.5 -71.99999999999999 L79 -71.99999999999999 z"/>
<path fill="#a52a2a" stroke="#a52a2a" d="M79 0 L79 0 L79 -72 L79 -72 z"/>
<path fill="#a52a2a" stroke="#a52a2a" d="M80.5 0 L79 0 L79 -71.99999999999999 L80.5 -71.99999999999999 z"/>
<path fill="#a52a2a" stroke="#a52a2a" d="M80.5 0 L80.5 0 L80.5 -72 L80.5 -72 z"/>
<path fill="#a52a2a" stroke="#a52a2a" d="M79 -72 L80.5 -72 L80.5 -72 L79 -72 z"/>
<path fill="#a52a2a" stroke="#a52a2a" d="M80.5 0 L79 0 L79 0 L80.5 0 z"/>
<path fill="#a52a2a" stroke="#a52a2a" d="M94.5 0 L96 0 L96 -71.99999999999999 L94.5 -71.99999999999999 z"/>
<path fill="#a52a2a" stroke="#a52a2a" d="M94.5 0 L94.5 0 L94.5 -72 L94.5 -72 z"/>
<path fill="#a52a2a" stroke="#a52a2a" d="M96 0 L94.5 0 L94.5 -71.99999999999999 L96 -71.99999999999999 z"/>
<path fill="#a52a2a" stroke="#a52a2a" d="M96 0 L96 0 L96 -72 L96 -72 z"/>
<path fill="#a52a2a" stroke="#a52a2a" d="M94.5 -72 L96 -72 L96 -72 L94.5 -72 z"/>
<path fill="#a52a2a" stroke="#a52a2a" d="M96 0 L94.5 0 L94.5 0 L96 0 z"/>
<path fill="#a52a2a" stroke="#a52a2a" d="M110 0 L111.5 0 L111.5 -71.99999999999999 L110 -71.99999999999999 z"/>
<path fill="#a52a2a" stroke="#a52a2a" d="M110 0 L110 0 L110 -72 L110 -72 z"/>
<path fill="#a52a2a" stroke="#a52a2a" d="M111.5 0 L110 0 L110 -71.99999999999999 L111.5 -71.99999999999999 z"/>
<path fill="#a52a2a" stroke="#a52a2a" d="M111.5 0 L111.5 0 L111.5 -72 L111.5 -72 z"/>
<path fill="#a52a2a" stroke="#a52a2a" d="M110 -72 L111.5 -72 L111.5 -72 L110 -72 z"/>
<path fill="#a52a2a" stroke="#a52a2a" d="M111.5 0 L110 0 L110 0 L111.5 0 z"/>
<path fill="#a52a2a" stroke="#a52a2a" d="M125.5 0 L127 0 L127 -71.99999999999999 L125.5 -71.99999999999999 z"/>
<path fill="#a52a2a" stroke="#a52a2a" d="M125.5 0 L125.5 0 L125.5 -72 L125.5 -72 z"/>
<path fill="#a52a2a" stroke="#a52a2a" d="M127 0 L125.5 0 L125.5 -71.99999999999999 L127 -71.99999999999999 z"/>
<path fill="#a52a2a" stroke="#a52a2a" d="M127 0 L127 0 L127 -72 L127 -72 z"/>
<path fill="#a52a2a" stroke="#a52a2a" d="M125.5 -72 L127 -72 L127 -72 L125.5 -72 z"/>
<path fill="#a52a2a" stroke="#a52a2a" d="M127 0 L125.5 0 L125.5 0 L127 0 z"/>
<path fill="#a52a2a" stroke="#a52a2a" d="M141 0 L142.5 0 L142.5 -71.99999999999999 L141 -71.99999999999999 z"/>
<path fill="#a52a2a" stroke="#a52a2a" d="M141 0 L141 0 L141 -72 L141 -72 z"/>
<path fill="#a52a2a" stroke="#a52a2a" d="M142.5 0 L141 0 L141 -71.99999999999999 L142.5 -71.99999999999999 z"/>
<path fill="#a52a2a" stroke="#a52a2a" d="M142.5 0 L142.5 0 L142.5 -72 L142.5 -72 z"/>
<path fill="#a52a2a" stroke="#a52a2a" d="M141 -72 L142.5 -72 L142.5 -72 L141 -72 z"/>
<path fill="#a52a2a" stroke="#a52a2a" d="M142.5 0 L141 0 L141 0 L142.5 0 z"/>
<path fill="#a52a2a" stroke="#a52a2a" d="M156.5 0 L158 0 L158 -71.99999999999999 L156.5 -71.99999999999999 z"/>
<path fill="#a52a2a" stroke="#a52a2a" d="M156.5 0 L156.5 0 L156.5 -72 L156.5 -72 z"/>
<path fill="#a52a2a" stroke="#a52a2a" d="M158 0 L156.5 0 L156.5 -71.99999999999999 L158 -71.99999999999999 z"/>
<path fill="#a52a2a" stroke="#a52a2a" d="M158 0 L158 0 L158 -72 L158 -72 z"/>
<path fill="#a52a2a" stroke="#a52a2a" d="M156.5 -72 L158 -72 L158 -72 L156.5 -72 z"/>
<path fill="#a52a2a" stroke="#a52a2a" d="M158 0 L156.5 0 L156.5 0 L158 0 z"/>
<path fill="#a52a2a" stroke="#a52a2a" d="M172 0 L173.5 0 L173.5 -71.99999999999999 L172 -71.99999999999999 z"/>
<path fill="#a52a2a" stroke="#a52a2a" d="M172 0 L172 0 L172 -72 L172 -72 z"/>
<path fill="#a52a2a" stroke="#a52a2a" d="M173.5 0 L172 0 L172 -71.99999999999999 L173.5 -71.99999999999999 z"/>
<path fill="#a52a2a" stroke="#a52a2a" d="M173.5 0 L173.5 0 L173.5 -72 L173.5 -72 z"/>
<path fill="#a52a2a" stroke="#a52a2a" d="M172 -72 L173.5 -72 L173.5 -72 L172 -72 z"/>
<path fill="#a52a2a" stroke="#a52a2a" d="M173.5 0 L172 0 L172 0 L173.5 0 z"/>
<path fill="#a52a2a" stroke="#a52a2a" d="M187.5 0 L189 0 L189 -71.99999999999999 L187.5 -71.99999999999999 z"/>
<path fill="#a52a2a" stroke="#a52a2a" d="M187.5 0 L187.5 0 L187.5 -72 L187.5 -72 z"/>
<path fill="#a52a2a" stroke="#a52a2a" d="M189 0 L187.5 0 L187.5 -71.99999999999999 L189 -71.99999999999999 z"/>
<path fill="#a52a2a" stroke="#a52a2a" d="M189 0 L189 0 L189 -72 L189 -72 z"/>
<path fill="#a52a2a" stroke="#a52a2a" d="M187.5 -72 L189 -72 L189 -72 L187.5 -72 z"/>
<path fill="#a52a2a" stroke="#a52a2a" d="M189 0 L187.5 0 L187.5 0 L189 0 z"/>
<path fill="#a52a2a" stroke="#a52a2a" d="M203 0 L204.5 0 L204.5 -71.99999999999999 L203 -71.99999999999999 z"/>
<path fill="#a52a2a" stroke="#a52a2a" d="M203 0 L203 0 L203 -72 L203 -72 z"/>
<path fill="#a52a2a" stroke="#a52a2a" d="M204.5 0 L203 0 L203 -71.99999999999999 L204.5 -71.99999999999999 z"/>
<path fill="#a52a2a" stroke="#a52a2a" d="M204.5 0 L204.5 0 L204.5 -72 L204.5 -72 z"/>
<path fill="#a52a2a" stroke="#a52a2a" d="M203 -72 L204.5 -72 L204.5 -72 L203 -72 z"/>
<path fill="#a52a2a" stroke="#a52a2a" d="M204.5 0 L203 0 L203 0 L204.5 0 z"/>
<path fill="#a52a2a" stroke="#a52a2a" d="M218.5 0 L220 0 L220 -71.99999999999999 L218.5 -71.99999999999999 z"/>
<path fill="#a52a2a" stroke="#a52a2a" d="M218.5 0 L218.5 0 L218.5 -72 L218.5 -72 z"/>
<path fill="#a52a2a" stroke="#a52a2a" d="M220 0 L218.5 0 L218.5 -71.99999999999999 L220 -71.99999999999999 z"/>
<path fill="#a52a2a" stroke="#a52a2a" d="M220 0 L220 0 L220 -72 L220 -72 z"/>
<path fill="#a52a2a" stroke="#a52a2a" d="M218.5 -72 L220 -72 L220 -72 L218.5 -72 z"/>
<path fill="#a52a2a" stroke="#a52a2a" d="M220 0 L218.5 0 L218.5 0 L220 0 z"/>
<path fill="#a52a2a" stroke="#a52a2a" d="M234 0 L235.5 0 L235.5 -71.99999999999999 L234 -71.99999999999999 z"/>
<path fill="#a52a2a" stroke="#a52a2a" d="M234 0 L234 0 L234 -72 L234 -72 z"/>
<path fill="#a52a2a" stroke="#a52a2a" d="M235.5 0 L234 0 L234 -71.99999999999999 L235.5 -71.99999999999999 z"/>
<path fill="#a52a2a" stroke="#a52a2a" d="M235.5 0 L235.5 0 L235.5 -72 L235.5 -72 z"/>
<path fill="#a52a2a" stroke="#a52a2a" d="M234 -72 L235.5 -72 L235.5 -72 L234 -72 z"/>
<path fill="#a52a2a" stroke="#a52a2a" d="M235.5 0 L234 0 L234 0 L235.5 0 z"/>
<path fill="#a52a2a" stroke="#a52a2a" d="M249.5 0 L251 0 L251 -71.99999999999999 L249.5 -71.99999999999999 z"/>
<path fill="#a52a2a" stroke="#a52a2a" d="M249.5 0 L249.5 0 L249.5 -72 L249.5 -72 z"/>
<path fill="#a52a2a" stroke="#a52a2a" d="M251 0 L249.5 0 L249.5 -71.99999999999999 L251 -71.99999999999999 z"/>
<path fill="#a52a2a" stroke="#a52a2a" d="M251 0 L251 0 L251 -72 L251 -72 z"/>
<path fill="#a52a2a" stroke="#a52a2a" d="M249.5 -72 L251 -72 L251 -72 L249.5 -72 z"/>
<path fill="#a52a2a" stroke="#a52a2a" d="M251 0 L249.5 0 L249.5 0 L251 0 z"/>
<path fill="#a52a2a" stroke="#a52a2a" d="M265 0 L266.5 0 L266.5 -71.99999999999999 L265 -71.99999999999999 z"/>
<path fill="#a52a2a" stroke="#a52a2a" d="M265 0 L265 0 L265 -72 L265 -72 z"/>
<path fill="#a52a2a" stroke="#a52a2a" d="M266.5 0 L265 0 L265 -71.99999999999999 L266.5 -71.99999999999999 z"/>
<path fill="#a52a2a" stroke="#a52a2a" d="M266.5 0 L266.5 0 L266.5 -72 L266.5 -72 z"/>
<path fill="#a52a2a" stroke="#a52a2a" d="M265 -72 L266.5 -72 L266.5 -72 L265 -72 z"/>
<path fill="#a52a2a" stroke="#a52a2a" d="M266.5 0 L265 0 L265 0 L266.5 0 z"/>
<path fill="#a52a2a" stroke="#a52a2a" d="M266.5 -71.99999999999999 L266.5 0 L268 0 L268 -71.99999999999999 z"/>
<path fill="#a52a2a" stroke="#a52a2a" d="M266.5 -72 L266.5 0 L266.5 0 L266.5 -72 z"/>
<path fill="#a52a2a" stroke="#a52a2a" d="M268 -71.99999999999999 L268 0 L266.5 0 L266.5 -71.99999999999999 z"/>
<path fill="#a52a2a" stroke="#a52a2a" d="M268 -72 L268 0 L268 0 L268 -72 z"/>
<path fill="#a52a2a" stroke="#a52a2a" d="M266.5 -72 L268 -72 L268 -72 L266.5 -72 z"/>
<path fill="#a52a2a" stroke="#a52a2a" d="M266.5 0 L266.5 0 L268 0 L268 0 z"/>
<path fill="#b0e0e6" stroke="#b0e0e6" d="M142 0 L-2 0 L-2 0 L142 0 z"/>
<path fill="#b0e0e6" stroke="#b0e0e6" d="M142 -5.499999999999999 L-2 -5.499999999999999 L-2 0 L142 0 z"/>
<path fill="#b0e0e6" stroke="#b0e0e6" d="M142 -5.5 L-2 -5.5 L-2 -5.5 L142 -5.5 z"/>
<path fill="#b0e0e6" stroke="#b0e0e6" d="M142 0 L-2 0 L-2 -5.499999999999999 L142 -5.499999999999999 z"/>
<path fill="#b0e0e6" stroke="#b0e0e6" d="M142 0 L142 0 L142 -5.5 L142 -5.5 z"/>
<path fill="#b0e0e6" stroke="#b0e0e6" d="M-2 0 L-2 -5.5 L-2 -5.5 L-2 0 z"/>
<path fill="#b0e0e6" stroke="#b0e0e6" d="M142 0 L142 0 L286 0 L286 0 z"/>
<path fill="#b0e0e6" stroke="#b0e0e6" d="M142 -5.499999999999999 L142 0 L286 0 L286 -5.499999999999999 z"/>
<path fill="#b0e0e6" stroke="#b0e0e6" d="M142 -5.5 L142 -5.5 L286 -5.5 L286 -5.5 z"/>
<path fill="#b0e0e6" stroke="#b0e0e6" d="M142 0 L142 -5.499999999999999 L286 -5.499999999999999 L286 0 z"/>
<path fill="#b0e0e6" stroke="#b0e0e6" d="M286 0 L286 0 L286 -5.5 L286 -5.5 z"/>
<path fill="#b0e0e6" stroke="#b0e0e6" d="M142 0 L142 0 L142 -5.5 L142 -5.5 z"/>
</svg>