<?xml version="1.0" encoding="UTF-8"?>
<!-- Generated by jsxcad -->
<!DOCTYPE svg PUBLIC "-//W3C//DTD SVG 1.1 Tiny//EN" "http://www.w3.org/Graphics/SVG/1.1/DTD/svg11-tiny.dtd">
<svg baseProfile="tiny" height="72.00000000000006mm" width="242.5000000000001mm" viewBox="-2e-323 -1.5e-323 242.5000000000001 72.00000000000006" version="1.1" stroke="black" stroke-width=".1" fill="none" xmlns="http://www.w3.org/2000/svg">
<path fill="#a52a2a" stroke="#a52a2a" d="M0 0 L1.5 0 L1.5 -71.99999999999999 L0 -71.99999999999999 z"/>
<path fill="#a52a2a" stroke="#a52a2a" d="M0 0 L0 0 L0 -72 L0 -72 z"/>
<path fill="#a52a2a" stroke="#a52a2a" d="M1.5 0 L0 0 L0 -71.99999999999999 L1.5 -71.99999999999999 z"/>
<path fill="#a52a2a" stroke="#a52a2a" d="M1.5 0 L1.5 0 L1.5 -72 L1.5 -72 z"/>
<path fill="#a52a2a" stroke="#a52a2a" d="M0 -72 L0 -72 L1.5 -72 L1.5 -72 z"/>
<path fill="#a52a2a" stroke="#a52a2a" d="M0 0 L0 0 L1.5 0 L1.5 0 z"/>
<path fill="#a52a2a" stroke="#a52a2a" d="M1.5 0 L3 0 L3 -71.99999999999999 L1.5 -71.99999999999999 z"/>
<path fill="#a52a2a" stroke="#a52a2a" d="M1.5 0 L1.5 0 L1.5 -72 L1.5 -72 z"/>
<path fill="#a52a2a" stroke="#a52a2a" d="M3 0 L1.5 0 L1.5 -71.99999999999999 L3 -71.99999999999999 z"/>
<path fill="#a52a2a" stroke="#a52a2a" d="M3 0 L3 0 L3 -72 L3 -72 z"/>
<path fill="#a52a2a" stroke="#a52a2a" d="M1.5 -72 L3 -72 L3 -72 L1.5 -72 z"/>
<path fill="#a52a2a" stroke="#a52a2a" d="M3 0 L1.5 0 L1.5 0 L3 0 z"/>
<path fill="#a52a2a" stroke="#a52a2a" d="M15.5 0 L17 0 L17 -71.99999999999999 L15.5 -71.99999999999999 z"/>
<path fill="#a52a2a" stroke="#a52a2a" d="M15.5 0 L15.5 0 L15.5 -72 L15.5 -72 z"/>
<path fill="#a52a2a" stroke="#a52a2a" d="M17 0 L15.5 0 L15.5 -71.99999999999999 L17 -71.99999999999999 z"/>
<path fill="#a52a2a" stroke="#a52a2a" d="M17 0 L17 0 L17 -72 L17 -72 z"/>
<path fill="#a52a2a" stroke="#a52a2a" d="M15.5 -72 L17 -72 L17 -72 L15.5 -72 z"/>
<path fill="#a52a2a" stroke="#a52a2a" d="M17 0 L15.5 0 L15.5 0 L17 0 z"/>
<path fill="#a52a2a" stroke="#a52a2a" d="M29.5 0 L31 0 L31 -71.99999999999999 L29.5 -71.99999999999999 z"/>
<path fill="#a52a2a" stroke="#a52a2a" d="M29.5 0 L29.5 0 L29.5 -72 L29.5 -72 z"/>
<path fill="#a52a2a" stroke="#a52a2a" d="M31 0 L29.5 0 L29.5 -71.99999999999999 L31 -71.99999999999999 z"/>
<path fill="#a52a2a" stroke="#a52a2a" d="M31 0 L31 0 L31 -72 L31 -72 z"/>
<path fill="#a52a2a" stroke="#a52a2a" d="M29.5 -72 L31 -72 L31 -72 L29.5 -72 z"/>
<path fill="#a52a2a" stroke="#a52a2a" d="M31 0 L29.5 0 L29.5 0 L31 0 z"/>
<path fill="#a52a2a" stroke="#a52a2a" d="M43.5 0 L45 0 L45 -71.99999999999999 L43.5 -71.99999999999999 z"/>
<path fill="#a52a2a" stroke="#a52a2a" d="M43.5 0 L43.5 0 L43.5 -72 L43.5 -72 z"/>
<path fill="#a52a2a" stroke="#a52a2a" d="M45 0 L43.5 0 L43.5 -71.99999999999999 L45 -71.99999999999999 z"/>
<path fill="#a52a2a" stroke="#a52a2a" d="M45 0 L45 0 L45 -72 L45 -72 z"/>
<path fill="#a52a2a" stroke="#a52a2a" d="M43.5 -72 L45 -72 L45 -72 L43.5 -72 z"/>
<path fill="#a52a2a" stroke="#a52a2a" d="M45 0 L43.5 0 L43.5 0 L45 0 z"/>
<path fill="#a52a2a" stroke="#a52a2a" d="M57.5 0 L59 0 L59 -71.99999999999999 L57.5 -71.99999999999999 z"/>
<path fill="#a52a2a" stroke="#a52a2a" d="M57.5 0 L57.5 0 L57.5 -72 L57.5 -72 z"/>
<path fill="#a52a2a" stroke="#a52a2a" d="M59 0 L57.5 0 L57.5 -71.99999999999999 L59 -71.99999999999999 z"/>
<path fill="#a52a2a" stroke="#a52a2a" d="M59 0 L59 0 L59 -72 L59 -72 z"/>
<path fill="#a52a2a" stroke="#a52a2a" d="M57.5 -72 L59 -72 L59 -72 L57.5 -72 z"/>
<path fill="#a52a2a" stroke="#a52a2a" d="M59 0 L57.5 0 L57.5 0 L59 0 z"/>
<path fill="#a52a2a" stroke="#a52a2a" d="M71.5 0 L73 0 L73 -71.99999999999999 L71.5 -71.99999999999999 z"/>
<path fill="#a52a2a" stroke="#a52a2a" d="M71.5 0 L71.5 0 L71.5 -72 L71.5 -72 z"/>
<path fill="#a52a2a" stroke="#a52a2a" d="M73 0 L71.5 0 L71.5 -71.99999999999999 L73 -71.99999999999999 z"/>
<path fill="#a52a2a" stroke="#a52a2a" d="M73 0 L73 0 L73 -72 L73 -72 z"/>
<path fill="#a52a2a" stroke="#a52a2a" d="M71.5 -72 L73 -72 L73 -72 L71.5 -72 z"/>
<path fill="#a52a2a" stroke="#a52a2a" d="M73 0 L71.5 0 L71.5 0 L73 0 z"/>
<path fill="#a52a2a" stroke="#a52a2a" d="M85.5 0 L87 0 L87 -71.99999999999999 L85.5 -71.99999999999999 z"/>
<path fill="#a52a2a" stroke="#a52a2a" d="M85.5 0 L85.5 0 L85.5 -72 L85.5 -72 z"/>
<path fill="#a52a2a" stroke="#a52a2a" d="M87 0 L85.5 0 L85.5 -71.99999999999999 L87 -71.99999999999999 z"/>
<path fill="#a52a2a" stroke="#a52a2a" d="M87 0 L87 0 L87 -72 L87 -72 z"/>
<path fill="#a52a2a" stroke="#a52a2a" d="M85.5 -72 L87 -72 L87 -72 L85.5 -72 z"/>
<path fill="#a52a2a" stroke="#a52a2a" d="M87 0 L85.5 0 L85.5 0 L87 0 z"/>
<path fill="#a52a2a" stroke="#a52a2a" d="M99.5 0 L101 0 L101 -71.99999999999999 L99.5 -71.99999999999999 z"/>
<path fill="#a52a2a" stroke="#a52a2a" d="M99.5 0 L99.5 0 L99.5 -72 L99.5 -72 z"/>
<path fill="#a52a2a" stroke="#a52a2a" d="M101 0 L99.5 0 L99.5 -71.99999999999999 L101 -71.99999999999999 z"/>
<path fill="#a52a2a" stroke="#a52a2a" d="M101 0 L101 0 L101 -72 L101 -72 z"/>
<path fill="#a52a2a" stroke="#a52a2a" d="M99.5 -72 L101 -72 L101 -72 L99.5 -72 z"/>
<path fill="#a52a2a" stroke="#a52a2a" d="M101 0 L99.5 0 L99.5 0 L101 0 z"/>
<path fill="#a52a2a" stroke="#a52a2a" d="M113.5 0 L115 0 L115 -71.99999999999999 L113.5 -71.99999999999999 z"/>
<path fill="#a52a2a" stroke="#a52a2a" d="M113.5 0 L113.5 0 L113.5 -72 L113.5 -72 z"/>
<path fill="#a52a2a" stroke="#a52a2a" d="M115 0 L113.5 0 L113.5 -71.99999999999999 L115 -71.99999999999999 z"/>
<path fill="#a52a2a" stroke="#a52a2a" d="M115 0 L115 0 L115 -72 L115 -72 z"/>
<path fill="#a52a2a" stroke="#a52a2a" d="M113.5 -72 L115 -72 L115 -72 L113.5 -72 z"/>
<path fill="#a52a2a" stroke="#a52a2a" d="M115 0 L113.5 0 L113.5 0 L115 0 z"/>
<path fill="#a52a2a" stroke="#a52a2a" d="M127.5 0 L129 0 L129 -71.99999999999999 L127.5 -71.99999999999999 z"/>
<path fill="#a52a2a" stroke="#a52a2a" d="M127.5 0 L127.5 0 L127.5 -72 L127.5 -72 z"/>
<path fill="#a52a2a" stroke="#a52a2a" d="M129 0 L127.5 0 L127.5 -71.99999999999999 L129 -71.99999999999999 z"/>
<path fill="#a52a2a" stroke="#a52a2a" d="M129 0 L129 0 L129 -72 L129 -72 z"/>
<path fill="#a52a2a" stroke="#a52a2a" d="M127.5 -72 L129 -72 L129 -72 L127.5 -72 z"/>
<path fill="#a52a2a" stroke="#a52a2a" d="M129 0 L127.5 0 L127.5 0 L129 0 z"/>
<path fill="#a52a2a" stroke="#a52a2a" d="M141.5 0 L143 0 L143 -71.99999999999999 L141.5 -71.99999999999999 z"/>
<path fill="#a52a2a" stroke="#a52a2a" d="M141.5 0 L141.5 0 L141.5 -72 L141.5 -72 z"/>
<path fill="#a52a2a" stroke="#a52a2a" d="M143 0 L141.5 0 L141.5 -71.99999999999999 L143 -71.99999999999999 z"/>
<path fill="#a52a2a" stroke="#a52a2a" d="M143 0 L143 0 L143 -72 L143 -72 z"/>
<path fill="#a52a2a" stroke="#a52a2a" d="M141.5 -72 L143 -72 L143 -72 L141.5 -72 z"/>
<path fill="#a52a2a" stroke="#a52a2a" d="M143 0 L141.5 0 L141.5 0 L143 0 z"/>
<path fill="#a52a2a" stroke="#a52a2a" d="M155.5 0 L157 0 L157 -71.99999999999999 L155.5 -71.99999999999999 z"/>
<path fill="#a52a2a" stroke="#a52a2a" d="M155.5 0 L155.5 0 L155.5 -72 L155.5 -72 z"/>
<path fill="#a52a2a" stroke="#a52a2a" d="M157 0 L155.5 0 L155.5 -71.99999999999999 L157 -71.99999999999999 z"/>
<path fill="#a52a2a" stroke="#a52a2a" d="M157 0 L157 0 L157 -72 L157 -72 z"/>
<path fill="#a52a2a" stroke="#a52a2a" d="M155.5 -72 L157 -72 L157 -72 L155.5 -72 z"/>
<path fill="#a52a2a" stroke="#a52a2a" d="M157 0 L155.5 0 L155.5 0 L157 0 z"/>
<path fill="#a52a2a" stroke="#a52a2a" d="M169.5 0 L171 0 L171 -71.99999999999999 L169.5 -71.99999999999999 z"/>
<path fill="#a52a2a" stroke="#a52a2a" d="M169.5 0 L169.5 0 L169.5 -72 L169.5 -72 z"/>
<path fill="#a52a2a" stroke="#a52a2a" d="M171 0 L169.5 0 L169.5 -71.99999999999999 L171 -71.99999999999999 z"/>
<path fill="#a52a2a" stroke="#a52a2a" d="M171 0 L171 0 L171 -72 L171 -72 z"/>
<path fill="#a52a2a" stroke="#a52a2a" d="M169.5 -72 L171 -72 L171 -72 L169.5 -72 z"/>
<path fill="#a52a2a" stroke="#a52a2a" d="M171 0 L169.5 0 L169.5 0 L171 0 z"/>
<path fill="#a52a2a" stroke="#a52a2a" d="M183.5 0 L185 0 L185 -71.99999999999999 L183.5 -71.99999999999999 z"/>
<path fill="#a52a2a" stroke="#a52a2a" d="M183.5 0 L183.5 0 L183.5 -72 L183.5 -72 z"/>
<path fill="#a52a2a" stroke="#a52a2a" d="M185 0 L183.5 0 L183.5 -71.99999999999999 L185 -71.99999999999999 z"/>
<path fill="#a52a2a" stroke="#a52a2a" d="M185 0 L185 0 L185 -72 L185 -72 z"/>
<path fill="#a52a2a" stroke="#a52a2a" d="M183.5 -72 L185 -72 L185 -72 L183.5 -72 z"/>
<path fill="#a52a2a" stroke="#a52a2a" d="M185 0 L183.5 0 L183.5 0 L185 0 z"/>
<path fill="#a52a2a" stroke="#a52a2a" d="M197.5 0 L199 0 L199 -71.99999999999999 L197.5 -71.99999999999999 z"/>
<path fill="#a52a2a" stroke="#a52a2a" d="M197.5 0 L197.5 0 L197.5 -72 L197.5 -72 z"/>
<path fill="#a52a2a" stroke="#a52a2a" d="M199 0 L197.5 0 L197.5 -71.99999999999999 L199 -71.99999999999999 z"/>
<path fill="#a52a2a" stroke="#a52a2a" d="M199 0 L199 0 L199 -72 L199 -72 z"/>
<path fill="#a52a2a" stroke="#a52a2a" d="M197.5 -72 L199 -72 L199 -72 L197.5 -72 z"/>
<path fill="#a52a2a" stroke="#a52a2a" d="M199 0 L197.5 0 L197.5 0 L199 0 z"/>
<path fill="#a52a2a" stroke="#a52a2a" d="M211.5 0 L213 0 L213 -71.99999999999999 L211.5 -71.99999999999999 z"/>
<path fill="#a52a2a" stroke="#a52a2a" d="M211.5 0 L211.5 0 L211.5 -72 L211.5 -72 z"/>
<path fill="#a52a2a" stroke="#a52a2a" d="M213 0 L211.5 0 L211.5 -71.99999999999999 L213 -71.99999999999999 z"/>
<path fill="#a52a2a" stroke="#a52a2a" d="M213 0 L213 0 L213 -72 L213 -72 z"/>
<path fill="#a52a2a" stroke="#a52a2a" d="M211.5 -72 L213 -72 L213 -72 L211.5 -72 z"/>
<path fill="#a52a2a" stroke="#a52a2a" d="M213 0 L211.5 0 L211.5 0 L213 0 z"/>
<path fill="#a52a2a" stroke="#a52a2a" d="M225.5 0 L227 0 L227 -71.99999999999999 L225.5 -71.99999999999999 z"/>
<path fill="#a52a2a" stroke="#a52a2a" d="M225.5 0 L225.5 0 L225.5 -72 L225.5 -72 z"/>
<path fill="#a52a2a" stroke="#a52a2a" d="M227 0 L225.5 0 L225.5 -71.99999999999999 L227 -71.99999999999999 z"/>
<path fill="#a52a2a" stroke="#a52a2a" d="M227 0 L227 0 L227 -72 L227 -72 z"/>
<path fill="#a52a2a" stroke="#a52a2a" d="M225.5 -72 L227 -72 L227 -72 L225.5 -72 z"/>
<path fill="#a52a2a" stroke="#a52a2a" d="M227 0 L225.5 0 L225.5 0 L227 0 z"/>
<path fill="#a52a2a" stroke="#a52a2a" d="M239.5 0 L241 0 L241 -71.99999999999999 L239.5 -71.99999999999999 z"/>
<path fill="#a52a2a" stroke="#a52a2a" d="M239.5 0 L239.5 0 L239.5 -72 L239.5 -72 z"/>
<path fill="#a52a2a" stroke="#a52a2a" d="M241 0 L239.5 0 L239.5 -71.99999999999999 L241 -71.99999999999999 z"/>
<path fill="#a52a2a" stroke="#a52a2a" d="M241 0 L241 0 L241 -72 L241 -72 z"/>
<path fill="#a52a2a" stroke="#a52a2a" d="M239.5 -72 L241 -72 L241 -72 L239.5 -72 z"/>
<path fill="#a52a2a" stroke="#a52a2a" d="M241 0 L239.5 0 L239.5 0 L241 0 z"/>
<path fill="#a52a2a" stroke="#a52a2a" d="M241 -71.99999999999999 L241 0 L242.5 0 L242.5 -71.99999999999999 z"/>
<path fill="#a52a2a" stroke="#a52a2a" d="M241 -72 L241 0 L241 0 L241 -72 z"/>
<path fill="#a52a2a" stroke="#a52a2a" d="M242.5 -71.99999999999999 L242.5 0 L241 0 L241 -71.99999999999999 z"/>
<path fill="#a52a2a" stroke="#a52a2a" d="M242.5 -72 L242.5 0 L242.5 0 L242.5 -72 z"/>
<path fill="#a52a2a" stroke="#a52a2a" d="M241 -72 L242.5 -72 L242.5 -72 L241 -72 z"/>
<path fill="#a52a2a" stroke="#a52a2a" d="M241 0 L241 0 L242.5 0 L242.5 0 z"/>
</svg>