<?xml version="1.0" encoding="UTF-8"?>
<!-- Generated by jsxcad -->
<!DOCTYPE svg PUBLIC "-//W3C//DTD SVG 1.1 Tiny//EN" "http://www.w3.org/Graphics/SVG/1.1/DTD/svg11-tiny.dtd">
<svg baseProfile="tiny" height="226.0730964467006mm" width="72.00000000000004mm" viewBox="-1.332267629550188e-15 -8.81945854483926 72.00000000000004 226.0730964467006" version="1.1" stroke="black" stroke-width=".1" fill="none" xmlns="http://www.w3.org/2000/svg">
<path fill="#75dbf2" stroke="#75dbf2" d="M72 3.166666666666668 L0 3.166666666666668 L0 2.105245346869714 L72 2.105245346869714 z"/>
<path fill="#75dbf2" stroke="#75dbf2" d="M72 8.819458544839256 L0 8.819458544839256 L0 3.166666666666668 L72 3.166666666666668 z"/>
<path fill="#75dbf2" stroke="#75dbf2" d="M72 7.758037225042302 L0 7.758037225042302 L0 8.819458544839256 L72 8.819458544839256 z"/>
<path fill="#75dbf2" stroke="#75dbf2" d="M72 2.1052453468697108 L0 2.1052453468697108 L0 7.758037225042299 L72 7.758037225042299 z"/>
<path fill="#75dbf2" stroke="#75dbf2" d="M72 3.1666666666666683 L72 2.105245346869714 L72 7.758037225042302 L72 8.819458544839256 z"/>
<path fill="#75dbf2" stroke="#75dbf2" d="M0 3.1666666666666683 L0 8.819458544839256 L0 7.758037225042302 L0 2.105245346869714 z"/>
<path fill="#75dbf2" stroke="#75dbf2" d="M72 2.105245346869714 L0 2.105245346869714 L0 1.0438240270727595 L72 1.0438240270727595 z"/>
<path fill="#75dbf2" stroke="#75dbf2" d="M72 7.758037225042299 L0 7.758037225042299 L0 2.1052453468697108 L72 2.1052453468697108 z"/>
<path fill="#75dbf2" stroke="#75dbf2" d="M72 6.6966159052453476 L0 6.6966159052453476 L0 7.758037225042302 L72 7.758037225042302 z"/>
<path fill="#75dbf2" stroke="#75dbf2" d="M72 1.0438240270727572 L0 1.0438240270727572 L0 6.696615905245342 L72 6.696615905245342 z"/>
<path fill="#75dbf2" stroke="#75dbf2" d="M72 2.105245346869714 L72 1.0438240270727595 L72 6.696615905245348 L72 7.758037225042302 z"/>
<path fill="#75dbf2" stroke="#75dbf2" d="M0 2.105245346869714 L0 7.758037225042302 L0 6.696615905245348 L0 1.0438240270727595 z"/>
<path fill="#75dbf2" stroke="#75dbf2" d="M72 -9.393485617597289 L0 -9.393485617597289 L0 -10.454906937394245 L72 -10.454906937394245 z"/>
<path fill="#75dbf2" stroke="#75dbf2" d="M72 -3.7406937394247066 L0 -3.7406937394247066 L0 -9.39348561759729 L72 -9.39348561759729 z"/>
<path fill="#75dbf2" stroke="#75dbf2" d="M72 -4.802115059221656 L0 -4.802115059221656 L0 -3.7406937394247017 L72 -3.7406937394247017 z"/>
<path fill="#75dbf2" stroke="#75dbf2" d="M72 -10.454906937394249 L0 -10.454906937394249 L0 -4.8021150592216575 L72 -4.8021150592216575 z"/>
<path fill="#75dbf2" stroke="#75dbf2" d="M72 -9.39348561759729 L72 -10.454906937394245 L72 -4.802115059221656 L72 -3.740693739424702 z"/>
<path fill="#75dbf2" stroke="#75dbf2" d="M0 -9.39348561759729 L0 -3.740693739424702 L0 -4.802115059221656 L0 -10.454906937394245 z"/>
<path fill="#75dbf2" stroke="#75dbf2" d="M72 -20.892216582064293 L0 -20.892216582064293 L0 -21.953637901861246 L72 -21.953637901861246 z"/>
<path fill="#75dbf2" stroke="#75dbf2" d="M72 -15.239424703891707 L0 -15.239424703891707 L0 -20.892216582064297 L72 -20.892216582064297 z"/>
<path fill="#75dbf2" stroke="#75dbf2" d="M72 -16.30084602368866 L0 -16.30084602368866 L0 -15.239424703891705 L72 -15.239424703891705 z"/>
<path fill="#75dbf2" stroke="#75dbf2" d="M72 -21.953637901861253 L0 -21.953637901861253 L0 -16.300846023688663 L72 -16.300846023688663 z"/>
<path fill="#75dbf2" stroke="#75dbf2" d="M72 -20.892216582064293 L72 -21.95363790186125 L72 -16.30084602368866 L72 -15.239424703891707 z"/>
<path fill="#75dbf2" stroke="#75dbf2" d="M0 -20.892216582064293 L0 -15.239424703891707 L0 -16.30084602368866 L0 -21.95363790186125 z"/>
<path fill="#75dbf2" stroke="#75dbf2" d="M72 -32.390947546531294 L0 -32.390947546531294 L0 -33.45236886632825 L72 -33.45236886632825 z"/>
<path fill="#75dbf2" stroke="#75dbf2" d="M72 -26.73815566835871 L0 -26.73815566835871 L0 -32.3909475465313 L72 -32.3909475465313 z"/>
<path fill="#75dbf2" stroke="#75dbf2" d="M72 -27.799576988155664 L0 -27.799576988155664 L0 -26.738155668358708 L72 -26.738155668358708 z"/>
<path fill="#75dbf2" stroke="#75dbf2" d="M72 -33.45236886632826 L0 -33.45236886632826 L0 -27.799576988155668 L72 -27.799576988155668 z"/>
<path fill="#75dbf2" stroke="#75dbf2" d="M72 -32.3909475465313 L72 -33.45236886632825 L72 -27.799576988155664 L72 -26.73815566835871 z"/>
<path fill="#75dbf2" stroke="#75dbf2" d="M0 -32.3909475465313 L0 -26.73815566835871 L0 -27.799576988155664 L0 -33.45236886632825 z"/>
<path fill="#75dbf2" stroke="#75dbf2" d="M72 -43.889678510998294 L0 -43.889678510998294 L0 -44.95109983079526 L72 -44.95109983079526 z"/>
<path fill="#75dbf2" stroke="#75dbf2" d="M72 -38.236886632825716 L0 -38.236886632825716 L0 -43.88967851099831 L72 -43.88967851099831 z"/>
<path fill="#75dbf2" stroke="#75dbf2" d="M72 -39.298307952622665 L0 -39.298307952622665 L0 -38.236886632825716 L72 -38.236886632825716 z"/>
<path fill="#75dbf2" stroke="#75dbf2" d="M72 -44.951099830795265 L0 -44.951099830795265 L0 -39.29830795262267 L72 -39.29830795262267 z"/>
<path fill="#75dbf2" stroke="#75dbf2" d="M72 -43.8896785109983 L72 -44.95109983079526 L72 -39.29830795262267 L72 -38.236886632825716 z"/>
<path fill="#75dbf2" stroke="#75dbf2" d="M0 -43.8896785109983 L0 -38.236886632825716 L0 -39.29830795262267 L0 -44.95109983079526 z"/>
<path fill="#75dbf2" stroke="#75dbf2" d="M72 -55.38840947546531 L0 -55.38840947546531 L0 -56.44983079526226 L72 -56.44983079526226 z"/>
<path fill="#75dbf2" stroke="#75dbf2" d="M72 -49.73561759729272 L0 -49.73561759729272 L0 -55.388409475465316 L72 -55.388409475465316 z"/>
<path fill="#75dbf2" stroke="#75dbf2" d="M72 -50.79703891708967 L0 -50.79703891708967 L0 -49.735617597292716 L72 -49.735617597292716 z"/>
<path fill="#75dbf2" stroke="#75dbf2" d="M72 -56.44983079526227 L0 -56.44983079526227 L0 -50.79703891708968 L72 -50.79703891708968 z"/>
<path fill="#75dbf2" stroke="#75dbf2" d="M72 -55.38840947546531 L72 -56.449830795262265 L72 -50.79703891708967 L72 -49.735617597292716 z"/>
<path fill="#75dbf2" stroke="#75dbf2" d="M0 -55.38840947546531 L0 -49.735617597292716 L0 -50.79703891708967 L0 -56.449830795262265 z"/>
<path fill="#75dbf2" stroke="#75dbf2" d="M72 -66.88714043993231 L0 -66.88714043993231 L0 -67.94856175972926 L72 -67.94856175972926 z"/>
<path fill="#75dbf2" stroke="#75dbf2" d="M72 -61.23434856175973 L0 -61.23434856175973 L0 -66.88714043993232 L72 -66.88714043993232 z"/>
<path fill="#75dbf2" stroke="#75dbf2" d="M72 -62.29576988155667 L0 -62.29576988155667 L0 -61.234348561759724 L72 -61.234348561759724 z"/>
<path fill="#75dbf2" stroke="#75dbf2" d="M72 -67.94856175972927 L0 -67.94856175972927 L0 -62.29576988155669 L72 -62.29576988155669 z"/>
<path fill="#75dbf2" stroke="#75dbf2" d="M72 -66.88714043993231 L72 -67.94856175972926 L72 -62.29576988155668 L72 -61.234348561759724 z"/>
<path fill="#75dbf2" stroke="#75dbf2" d="M0 -66.88714043993231 L0 -61.234348561759724 L0 -62.29576988155668 L0 -67.94856175972926 z"/>
<path fill="#75dbf2" stroke="#75dbf2" d="M72 -78.38587140439931 L0 -78.38587140439931 L0 -79.44729272419626 L72 -79.44729272419626 z"/>
<path fill="#75dbf2" stroke="#75dbf2" d="M72 -72.73307952622673 L0 -72.73307952622673 L0 -78.38587140439932 L72 -78.38587140439932 z"/>
<path fill="#75dbf2" stroke="#75dbf2" d="M72 -73.79450084602368 L0 -73.79450084602368 L0 -72.73307952622672 L72 -72.73307952622672 z"/>
<path fill="#75dbf2" stroke="#75dbf2" d="M72 -79.44729272419627 L0 -79.44729272419627 L0 -73.7945008460237 L72 -73.7945008460237 z"/>
<path fill="#75dbf2" stroke="#75dbf2" d="M72 -78.38587140439931 L72 -79.44729272419627 L72 -73.79450084602368 L72 -72.73307952622673 z"/>
<path fill="#75dbf2" stroke="#75dbf2" d="M0 -78.38587140439931 L0 -72.73307952622673 L0 -73.79450084602368 L0 -79.44729272419627 z"/>
<path fill="#75dbf2" stroke="#75dbf2" d="M72 -89.88460236886631 L0 -89.88460236886631 L0 -90.94602368866327 L72 -90.94602368866327 z"/>
<path fill="#75dbf2" stroke="#75dbf2" d="M72 -84.23181049069375 L0 -84.23181049069375 L0 -89.88460236886634 L72 -89.88460236886634 z"/>
<path fill="#75dbf2" stroke="#75dbf2" d="M72 -85.29323181049067 L0 -85.29323181049067 L0 -84.23181049069372 L72 -84.23181049069372 z"/>
<path fill="#75dbf2" stroke="#75dbf2" d="M72 -90.94602368866329 L0 -90.94602368866329 L0 -85.2932318104907 L72 -85.2932318104907 z"/>
<path fill="#75dbf2" stroke="#75dbf2" d="M72 -89.88460236886633 L72 -90.94602368866327 L72 -85.29323181049068 L72 -84.23181049069373 z"/>
<path fill="#75dbf2" stroke="#75dbf2" d="M0 -89.88460236886633 L0 -84.23181049069373 L0 -85.29323181049068 L0 -90.94602368866327 z"/>
<path fill="#75dbf2" stroke="#75dbf2" d="M72 -101.38333333333331 L0 -101.38333333333331 L0 -102.44475465313026 L72 -102.44475465313026 z"/>
<path fill="#75dbf2" stroke="#75dbf2" d="M72 -95.73054145516075 L0 -95.73054145516075 L0 -101.38333333333334 L72 -101.38333333333334 z"/>
<path fill="#75dbf2" stroke="#75dbf2" d="M72 -96.79196277495768 L0 -96.79196277495768 L0 -95.73054145516073 L72 -95.73054145516073 z"/>
<path fill="#75dbf2" stroke="#75dbf2" d="M72 -102.44475465313029 L0 -102.44475465313029 L0 -96.7919627749577 L72 -96.7919627749577 z"/>
<path fill="#75dbf2" stroke="#75dbf2" d="M72 -101.38333333333333 L72 -102.44475465313027 L72 -96.7919627749577 L72 -95.73054145516073 z"/>
<path fill="#75dbf2" stroke="#75dbf2" d="M0 -101.38333333333333 L0 -95.73054145516073 L0 -96.7919627749577 L0 -102.44475465313027 z"/>
<path fill="#75dbf2" stroke="#75dbf2" d="M72 -112.88206429780033 L0 -112.88206429780033 L0 -113.94348561759728 L72 -113.94348561759728 z"/>
<path fill="#75dbf2" stroke="#75dbf2" d="M72 -107.22927241962776 L0 -107.22927241962776 L0 -112.88206429780033 L72 -112.88206429780033 z"/>
<path fill="#75dbf2" stroke="#75dbf2" d="M72 -108.2906937394247 L0 -108.2906937394247 L0 -107.22927241962773 L72 -107.22927241962773 z"/>
<path fill="#75dbf2" stroke="#75dbf2" d="M72 -113.9434856175973 L0 -113.9434856175973 L0 -108.29069373942471 L72 -108.29069373942471 z"/>
<path fill="#75dbf2" stroke="#75dbf2" d="M72 -112.88206429780033 L72 -113.94348561759729 L72 -108.2906937394247 L72 -107.22927241962775 z"/>
<path fill="#75dbf2" stroke="#75dbf2" d="M0 -112.88206429780033 L0 -107.22927241962775 L0 -108.2906937394247 L0 -113.94348561759729 z"/>
<path fill="#75dbf2" stroke="#75dbf2" d="M72 -124.38079526226733 L0 -124.38079526226733 L0 -125.44221658206429 L72 -125.44221658206429 z"/>
<path fill="#75dbf2" stroke="#75dbf2" d="M72 -118.72800338409476 L0 -118.72800338409476 L0 -124.38079526226736 L72 -124.38079526226736 z"/>
<path fill="#75dbf2" stroke="#75dbf2" d="M72 -119.78942470389168 L0 -119.78942470389168 L0 -118.72800338409473 L72 -118.72800338409473 z"/>
<path fill="#75dbf2" stroke="#75dbf2" d="M72 -125.44221658206429 L0 -125.44221658206429 L0 -119.7894247038917 L72 -119.7894247038917 z"/>
<path fill="#75dbf2" stroke="#75dbf2" d="M72 -124.38079526226734 L72 -125.44221658206429 L72 -119.7894247038917 L72 -118.72800338409475 z"/>
<path fill="#75dbf2" stroke="#75dbf2" d="M0 -124.38079526226734 L0 -118.72800338409475 L0 -119.7894247038917 L0 -125.44221658206429 z"/>
<path fill="#75dbf2" stroke="#75dbf2" d="M72 -135.87952622673433 L0 -135.87952622673433 L0 -136.94094754653128 L72 -136.94094754653128 z"/>
<path fill="#75dbf2" stroke="#75dbf2" d="M72 -130.22673434856173 L0 -130.22673434856173 L0 -135.87952622673433 L72 -135.87952622673433 z"/>
<path fill="#75dbf2" stroke="#75dbf2" d="M72 -131.28815566835868 L0 -131.28815566835868 L0 -130.22673434856173 L72 -130.22673434856173 z"/>
<path fill="#75dbf2" stroke="#75dbf2" d="M72 -136.9409475465313 L0 -136.9409475465313 L0 -131.2881556683587 L72 -131.2881556683587 z"/>
<path fill="#75dbf2" stroke="#75dbf2" d="M72 -135.87952622673433 L72 -136.94094754653128 L72 -131.2881556683587 L72 -130.22673434856173 z"/>
<path fill="#75dbf2" stroke="#75dbf2" d="M0 -135.87952622673433 L0 -130.22673434856173 L0 -131.2881556683587 L0 -136.94094754653128 z"/>
<path fill="#75dbf2" stroke="#75dbf2" d="M72 -147.37825719120133 L0 -147.37825719120133 L0 -148.43967851099828 L72 -148.43967851099828 z"/>
<path fill="#75dbf2" stroke="#75dbf2" d="M72 -141.72546531302876 L0 -141.72546531302876 L0 -147.37825719120136 L72 -147.37825719120136 z"/>
<path fill="#75dbf2" stroke="#75dbf2" d="M72 -142.78688663282568 L0 -142.78688663282568 L0 -141.72546531302874 L72 -141.72546531302874 z"/>
<path fill="#75dbf2" stroke="#75dbf2" d="M72 -148.4396785109983 L0 -148.4396785109983 L0 -142.7868866328257 L72 -142.7868866328257 z"/>
<path fill="#75dbf2" stroke="#75dbf2" d="M72 -147.37825719120133 L72 -148.4396785109983 L72 -142.7868866328257 L72 -141.72546531302874 z"/>
<path fill="#75dbf2" stroke="#75dbf2" d="M0 -147.37825719120133 L0 -141.72546531302874 L0 -142.7868866328257 L0 -148.4396785109983 z"/>
<path fill="#75dbf2" stroke="#75dbf2" d="M72 -158.87698815566833 L0 -158.87698815566833 L0 -159.93840947546528 L72 -159.93840947546528 z"/>
<path fill="#75dbf2" stroke="#75dbf2" d="M72 -153.22419627749576 L0 -153.22419627749576 L0 -158.87698815566836 L72 -158.87698815566836 z"/>
<path fill="#75dbf2" stroke="#75dbf2" d="M72 -154.28561759729268 L0 -154.28561759729268 L0 -153.22419627749574 L72 -153.22419627749574 z"/>
<path fill="#75dbf2" stroke="#75dbf2" d="M72 -159.9384094754653 L0 -159.9384094754653 L0 -154.2856175972927 L72 -154.2856175972927 z"/>
<path fill="#75dbf2" stroke="#75dbf2" d="M72 -158.87698815566833 L72 -159.9384094754653 L72 -154.2856175972927 L72 -153.22419627749576 z"/>
<path fill="#75dbf2" stroke="#75dbf2" d="M0 -158.87698815566833 L0 -153.22419627749576 L0 -154.2856175972927 L0 -159.9384094754653 z"/>
<path fill="#75dbf2" stroke="#75dbf2" d="M72 -170.37571912013536 L0 -170.37571912013536 L0 -171.4371404399323 L72 -171.4371404399323 z"/>
<path fill="#75dbf2" stroke="#75dbf2" d="M72 -164.72292724196276 L0 -164.72292724196276 L0 -170.37571912013536 L72 -170.37571912013536 z"/>
<path fill="#75dbf2" stroke="#75dbf2" d="M72 -165.78434856175969 L0 -165.78434856175969 L0 -164.72292724196274 L72 -164.72292724196274 z"/>
<path fill="#75dbf2" stroke="#75dbf2" d="M72 -171.4371404399323 L0 -171.4371404399323 L0 -165.7843485617597 L72 -165.7843485617597 z"/>
<path fill="#75dbf2" stroke="#75dbf2" d="M72 -170.37571912013536 L72 -171.4371404399323 L72 -165.7843485617597 L72 -164.72292724196276 z"/>
<path fill="#75dbf2" stroke="#75dbf2" d="M0 -170.37571912013536 L0 -164.72292724196276 L0 -165.7843485617597 L0 -171.4371404399323 z"/>
<path fill="#75dbf2" stroke="#75dbf2" d="M72 -181.87445008460233 L0 -181.87445008460233 L0 -182.93587140439928 L72 -182.93587140439928 z"/>
<path fill="#75dbf2" stroke="#75dbf2" d="M72 -176.2216582064298 L0 -176.2216582064298 L0 -181.87445008460236 L72 -181.87445008460236 z"/>
<path fill="#75dbf2" stroke="#75dbf2" d="M72 -177.28307952622671 L0 -177.28307952622671 L0 -176.22165820642977 L72 -176.22165820642977 z"/>
<path fill="#75dbf2" stroke="#75dbf2" d="M72 -182.93587140439934 L0 -182.93587140439934 L0 -177.28307952622677 L72 -177.28307952622677 z"/>
<path fill="#75dbf2" stroke="#75dbf2" d="M72 -181.87445008460236 L72 -182.9358714043993 L72 -177.28307952622671 L72 -176.22165820642977 z"/>
<path fill="#75dbf2" stroke="#75dbf2" d="M0 -181.87445008460236 L0 -176.22165820642977 L0 -177.28307952622671 L0 -182.9358714043993 z"/>
<path fill="#75dbf2" stroke="#75dbf2" d="M72 -193.37318104906933 L0 -193.37318104906933 L0 -194.43460236886628 L72 -194.43460236886628 z"/>
<path fill="#75dbf2" stroke="#75dbf2" d="M72 -187.7203891708968 L0 -187.7203891708968 L0 -193.37318104906936 L72 -193.37318104906936 z"/>
<path fill="#75dbf2" stroke="#75dbf2" d="M72 -188.7818104906937 L0 -188.7818104906937 L0 -187.72038917089674 L72 -187.72038917089674 z"/>
<path fill="#75dbf2" stroke="#75dbf2" d="M72 -194.43460236886634 L0 -194.43460236886634 L0 -188.78181049069374 L72 -188.78181049069374 z"/>
<path fill="#75dbf2" stroke="#75dbf2" d="M72 -193.37318104906936 L72 -194.4346023688663 L72 -188.78181049069372 L72 -187.72038917089677 z"/>
<path fill="#75dbf2" stroke="#75dbf2" d="M0 -193.37318104906936 L0 -187.72038917089677 L0 -188.78181049069372 L0 -194.4346023688663 z"/>
<path fill="#75dbf2" stroke="#75dbf2" d="M72 -194.61150592216578 L0 -194.61150592216578 L0 -195.67292724196273 L72 -195.67292724196273 z"/>
<path fill="#75dbf2" stroke="#75dbf2" d="M72 -188.95871404399324 L0 -188.95871404399324 L0 -194.61150592216583 L72 -194.61150592216583 z"/>
<path fill="#75dbf2" stroke="#75dbf2" d="M72 -190.02013536379016 L0 -190.02013536379016 L0 -188.95871404399318 L72 -188.95871404399318 z"/>
<path fill="#75dbf2" stroke="#75dbf2" d="M72 -195.67292724196275 L0 -195.67292724196275 L0 -190.0201353637902 L72 -190.0201353637902 z"/>
<path fill="#75dbf2" stroke="#75dbf2" d="M72 -194.6115059221658 L72 -195.67292724196275 L72 -190.02013536379016 L72 -188.9587140439932 z"/>
<path fill="#75dbf2" stroke="#75dbf2" d="M0 -194.6115059221658 L0 -188.9587140439932 L0 -190.02013536379016 L0 -195.67292724196275 z"/>
<path fill="#ff9065" stroke="#ff9065" d="M0 -217.25363790186123 L0 -81.39170896785109 L0 -80.33181049069373 L0 -216.19373942470386 z"/>
<path fill="#ff9065" stroke="#ff9065" d="M5.5 -217.25363790186123 L5.5 -81.39170896785109 L0 -81.39170896785109 L0 -217.25363790186123 z"/>
<path fill="#ff9065" stroke="#ff9065" d="M5.5 -216.19373942470386 L5.5 -80.33181049069373 L5.5 -81.39170896785109 L5.5 -217.25363790186123 z"/>
<path fill="#ff9065" stroke="#ff9065" d="M0 -216.19373942470384 L0 -80.33181049069373 L5.5 -80.33181049069373 L5.5 -216.19373942470384 z"/>
<path fill="#ff9065" stroke="#ff9065" d="M0 -217.25363790186125 L0 -216.1937394247039 L5.5 -216.1937394247039 L5.5 -217.25363790186125 z"/>
<path fill="#ff9065" stroke="#ff9065" d="M0 -81.3917089678511 L5.5 -81.3917089678511 L5.5 -80.33181049069373 L0 -80.33181049069373 z"/>
<path fill="#ff9065" stroke="#ff9065" d="M0 -81.39170896785109 L0 3.521996615905247 L0 4.581895093062607 L0 -80.33181049069373 z"/>
<path fill="#ff9065" stroke="#ff9065" d="M5.5 -81.39170896785107 L5.5 3.521996615905247 L0 3.521996615905247 L0 -81.39170896785107 z"/>
<path fill="#ff9065" stroke="#ff9065" d="M5.5 -80.33181049069373 L5.5 4.581895093062607 L5.5 3.521996615905247 L5.5 -81.39170896785109 z"/>
<path fill="#ff9065" stroke="#ff9065" d="M0 -80.33181049069373 L0 4.581895093062607 L5.5 4.581895093062607 L5.5 -80.33181049069373 z"/>
<path fill="#ff9065" stroke="#ff9065" d="M0 -81.3917089678511 L0 -80.33181049069373 L5.5 -80.33181049069373 L5.5 -81.3917089678511 z"/>
<path fill="#ff9065" stroke="#ff9065" d="M0 3.5219966159052456 L5.5 3.5219966159052456 L5.5 4.581895093062605 L0 4.581895093062605 z"/>
<path fill="#ff9065" stroke="#ff9065" d="M6.25 -217.25363790186123 L6.25 -81.39170896785109 L6.25 -80.33181049069373 L6.25 -216.19373942470386 z"/>
<path fill="#ff9065" stroke="#ff9065" d="M11.75 -217.25363790186123 L11.75 -81.39170896785109 L6.25 -81.39170896785109 L6.25 -217.25363790186123 z"/>
<path fill="#ff9065" stroke="#ff9065" d="M11.75 -216.19373942470386 L11.75 -80.33181049069373 L11.75 -81.39170896785109 L11.75 -217.25363790186123 z"/>
<path fill="#ff9065" stroke="#ff9065" d="M6.25 -216.19373942470384 L6.25 -80.33181049069373 L11.75 -80.33181049069373 L11.75 -216.19373942470384 z"/>
<path fill="#ff9065" stroke="#ff9065" d="M6.25 -217.25363790186125 L6.25 -216.1937394247039 L11.75 -216.1937394247039 L11.75 -217.25363790186125 z"/>
<path fill="#ff9065" stroke="#ff9065" d="M6.25 -81.3917089678511 L11.75 -81.3917089678511 L11.75 -80.33181049069373 L6.25 -80.33181049069373 z"/>
<path fill="#ff9065" stroke="#ff9065" d="M6.25 -81.39170896785109 L6.25 3.521996615905247 L6.25 4.581895093062607 L6.25 -80.33181049069373 z"/>
<path fill="#ff9065" stroke="#ff9065" d="M11.75 -81.39170896785107 L11.75 3.521996615905247 L6.25 3.521996615905247 L6.25 -81.39170896785107 z"/>
<path fill="#ff9065" stroke="#ff9065" d="M11.75 -80.33181049069373 L11.75 4.581895093062607 L11.75 3.521996615905247 L11.75 -81.39170896785109 z"/>
<path fill="#ff9065" stroke="#ff9065" d="M6.25 -80.33181049069373 L6.25 4.581895093062607 L11.75 4.581895093062607 L11.75 -80.33181049069373 z"/>
<path fill="#ff9065" stroke="#ff9065" d="M6.25 -81.3917089678511 L6.25 -80.33181049069373 L11.75 -80.33181049069373 L11.75 -81.3917089678511 z"/>
<path fill="#ff9065" stroke="#ff9065" d="M6.25 3.5219966159052456 L11.75 3.5219966159052456 L11.75 4.581895093062605 L6.25 4.581895093062605 z"/>
<path fill="#ff9065" stroke="#ff9065" d="M12.5 -217.25363790186123 L12.5 -81.39170896785109 L12.5 -80.33181049069373 L12.5 -216.19373942470386 z"/>
<path fill="#ff9065" stroke="#ff9065" d="M18 -217.25363790186123 L18 -81.39170896785109 L12.5 -81.39170896785109 L12.5 -217.25363790186123 z"/>
<path fill="#ff9065" stroke="#ff9065" d="M18 -216.19373942470386 L18 -80.33181049069373 L18 -81.39170896785109 L18 -217.25363790186123 z"/>
<path fill="#ff9065" stroke="#ff9065" d="M12.5 -216.19373942470384 L12.5 -80.33181049069373 L18 -80.33181049069373 L18 -216.19373942470384 z"/>
<path fill="#ff9065" stroke="#ff9065" d="M12.5 -217.25363790186125 L12.5 -216.1937394247039 L18 -216.1937394247039 L18 -217.25363790186125 z"/>
<path fill="#ff9065" stroke="#ff9065" d="M12.5 -81.3917089678511 L18 -81.3917089678511 L18 -80.33181049069373 L12.5 -80.33181049069373 z"/>
<path fill="#ff9065" stroke="#ff9065" d="M12.5 -81.39170896785109 L12.5 3.521996615905247 L12.5 4.581895093062607 L12.5 -80.33181049069373 z"/>
<path fill="#ff9065" stroke="#ff9065" d="M18 -81.39170896785107 L18 3.521996615905247 L12.5 3.521996615905247 L12.5 -81.39170896785107 z"/>
<path fill="#ff9065" stroke="#ff9065" d="M18 -80.33181049069373 L18 4.581895093062607 L18 3.521996615905247 L18 -81.39170896785109 z"/>
<path fill="#ff9065" stroke="#ff9065" d="M12.5 -80.33181049069373 L12.5 4.581895093062607 L18 4.581895093062607 L18 -80.33181049069373 z"/>
<path fill="#ff9065" stroke="#ff9065" d="M12.5 -81.3917089678511 L12.5 -80.33181049069373 L18 -80.33181049069373 L18 -81.3917089678511 z"/>
<path fill="#ff9065" stroke="#ff9065" d="M12.5 3.5219966159052456 L18 3.5219966159052456 L18 4.581895093062605 L12.5 4.581895093062605 z"/>
<path fill="#ff9065" stroke="#ff9065" d="M18.75 -217.25363790186123 L18.75 -81.39170896785109 L18.75 -80.33181049069373 L18.75 -216.19373942470386 z"/>
<path fill="#ff9065" stroke="#ff9065" d="M24.25 -217.25363790186123 L24.25 -81.39170896785109 L18.75 -81.39170896785109 L18.75 -217.25363790186123 z"/>
<path fill="#ff9065" stroke="#ff9065" d="M24.25 -216.19373942470386 L24.25 -80.33181049069373 L24.25 -81.39170896785109 L24.25 -217.25363790186123 z"/>
<path fill="#ff9065" stroke="#ff9065" d="M18.75 -216.19373942470384 L18.75 -80.33181049069373 L24.25 -80.33181049069373 L24.25 -216.19373942470384 z"/>
<path fill="#ff9065" stroke="#ff9065" d="M18.75 -217.25363790186125 L18.75 -216.1937394247039 L24.25 -216.1937394247039 L24.25 -217.25363790186125 z"/>
<path fill="#ff9065" stroke="#ff9065" d="M18.75 -81.3917089678511 L24.25 -81.3917089678511 L24.25 -80.33181049069373 L18.75 -80.33181049069373 z"/>
<path fill="#ff9065" stroke="#ff9065" d="M18.75 -81.39170896785109 L18.75 3.521996615905247 L18.75 4.581895093062607 L18.75 -80.33181049069373 z"/>
<path fill="#ff9065" stroke="#ff9065" d="M24.25 -81.39170896785107 L24.25 3.521996615905247 L18.75 3.521996615905247 L18.75 -81.39170896785107 z"/>
<path fill="#ff9065" stroke="#ff9065" d="M24.25 -80.33181049069373 L24.25 4.581895093062607 L24.25 3.521996615905247 L24.25 -81.39170896785109 z"/>
<path fill="#ff9065" stroke="#ff9065" d="M18.75 -80.33181049069373 L18.75 4.581895093062607 L24.25 4.581895093062607 L24.25 -80.33181049069373 z"/>
<path fill="#ff9065" stroke="#ff9065" d="M18.75 -81.3917089678511 L18.75 -80.33181049069373 L24.25 -80.33181049069373 L24.25 -81.3917089678511 z"/>
<path fill="#ff9065" stroke="#ff9065" d="M18.75 3.5219966159052456 L24.25 3.5219966159052456 L24.25 4.581895093062605 L18.75 4.581895093062605 z"/>
<path fill="#ff9065" stroke="#ff9065" d="M25 -217.25363790186123 L25 -81.39170896785109 L25 -80.33181049069373 L25 -216.19373942470386 z"/>
<path fill="#ff9065" stroke="#ff9065" d="M30.5 -217.25363790186123 L30.5 -81.39170896785109 L25 -81.39170896785109 L25 -217.25363790186123 z"/>
<path fill="#ff9065" stroke="#ff9065" d="M30.5 -216.19373942470386 L30.5 -80.33181049069373 L30.5 -81.39170896785109 L30.5 -217.25363790186123 z"/>
<path fill="#ff9065" stroke="#ff9065" d="M25 -216.19373942470384 L25 -80.33181049069373 L30.5 -80.33181049069373 L30.5 -216.19373942470384 z"/>
<path fill="#ff9065" stroke="#ff9065" d="M25 -217.25363790186125 L25 -216.1937394247039 L30.5 -216.1937394247039 L30.5 -217.25363790186125 z"/>
<path fill="#ff9065" stroke="#ff9065" d="M25 -81.3917089678511 L30.5 -81.3917089678511 L30.5 -80.33181049069373 L25 -80.33181049069373 z"/>
<path fill="#ff9065" stroke="#ff9065" d="M25 -81.39170896785109 L25 3.521996615905247 L25 4.581895093062607 L25 -80.33181049069373 z"/>
<path fill="#ff9065" stroke="#ff9065" d="M30.5 -81.39170896785107 L30.5 3.521996615905247 L25 3.521996615905247 L25 -81.39170896785107 z"/>
<path fill="#ff9065" stroke="#ff9065" d="M30.5 -80.33181049069373 L30.5 4.581895093062607 L30.5 3.521996615905247 L30.5 -81.39170896785109 z"/>
<path fill="#ff9065" stroke="#ff9065" d="M25 -80.33181049069373 L25 4.581895093062607 L30.5 4.581895093062607 L30.5 -80.33181049069373 z"/>
<path fill="#ff9065" stroke="#ff9065" d="M25 -81.3917089678511 L25 -80.33181049069373 L30.5 -80.33181049069373 L30.5 -81.3917089678511 z"/>
<path fill="#ff9065" stroke="#ff9065" d="M25 3.5219966159052456 L30.5 3.5219966159052456 L30.5 4.581895093062605 L25 4.581895093062605 z"/>
<path fill="#ff9065" stroke="#ff9065" d="M31.25 -217.25363790186123 L31.25 -81.39170896785109 L31.25 -80.33181049069373 L31.25 -216.19373942470386 z"/>
<path fill="#ff9065" stroke="#ff9065" d="M36.75 -217.25363790186123 L36.75 -81.39170896785109 L31.25 -81.39170896785109 L31.25 -217.25363790186123 z"/>
<path fill="#ff9065" stroke="#ff9065" d="M36.75 -216.19373942470386 L36.75 -80.33181049069373 L36.75 -81.39170896785109 L36.75 -217.25363790186123 z"/>
<path fill="#ff9065" stroke="#ff9065" d="M31.25 -216.19373942470384 L31.25 -80.33181049069373 L36.75 -80.33181049069373 L36.75 -216.19373942470384 z"/>
<path fill="#ff9065" stroke="#ff9065" d="M31.25 -217.25363790186125 L31.25 -216.1937394247039 L36.75 -216.1937394247039 L36.75 -217.25363790186125 z"/>
<path fill="#ff9065" stroke="#ff9065" d="M31.25 -81.3917089678511 L36.75 -81.3917089678511 L36.75 -80.33181049069373 L31.25 -80.33181049069373 z"/>
<path fill="#ff9065" stroke="#ff9065" d="M31.25 -81.39170896785109 L31.25 3.521996615905247 L31.25 4.581895093062607 L31.25 -80.33181049069373 z"/>
<path fill="#ff9065" stroke="#ff9065" d="M36.75 -81.39170896785107 L36.75 3.521996615905247 L31.25 3.521996615905247 L31.25 -81.39170896785107 z"/>
<path fill="#ff9065" stroke="#ff9065" d="M36.75 -80.33181049069373 L36.75 4.581895093062607 L36.75 3.521996615905247 L36.75 -81.39170896785109 z"/>
<path fill="#ff9065" stroke="#ff9065" d="M31.25 -80.33181049069373 L31.25 4.581895093062607 L36.75 4.581895093062607 L36.75 -80.33181049069373 z"/>
<path fill="#ff9065" stroke="#ff9065" d="M31.25 -81.3917089678511 L31.25 -80.33181049069373 L36.75 -80.33181049069373 L36.75 -81.3917089678511 z"/>
<path fill="#ff9065" stroke="#ff9065" d="M31.25 3.5219966159052456 L36.75 3.5219966159052456 L36.75 4.581895093062605 L31.25 4.581895093062605 z"/>
<path fill="#ff9065" stroke="#ff9065" d="M37.5 -217.25363790186123 L37.5 -81.39170896785109 L37.5 -80.33181049069373 L37.5 -216.19373942470386 z"/>
<path fill="#ff9065" stroke="#ff9065" d="M43 -217.25363790186123 L43 -81.39170896785109 L37.5 -81.39170896785109 L37.5 -217.25363790186123 z"/>
<path fill="#ff9065" stroke="#ff9065" d="M43 -216.19373942470386 L43 -80.33181049069373 L43 -81.39170896785109 L43 -217.25363790186123 z"/>
<path fill="#ff9065" stroke="#ff9065" d="M37.5 -216.19373942470384 L37.5 -80.33181049069373 L43 -80.33181049069373 L43 -216.19373942470384 z"/>
<path fill="#ff9065" stroke="#ff9065" d="M37.5 -217.25363790186125 L37.5 -216.1937394247039 L43 -216.1937394247039 L43 -217.25363790186125 z"/>
<path fill="#ff9065" stroke="#ff9065" d="M37.5 -81.3917089678511 L43 -81.3917089678511 L43 -80.33181049069373 L37.5 -80.33181049069373 z"/>
<path fill="#ff9065" stroke="#ff9065" d="M37.5 -81.39170896785109 L37.5 3.521996615905247 L37.5 4.581895093062607 L37.5 -80.33181049069373 z"/>
<path fill="#ff9065" stroke="#ff9065" d="M43 -81.39170896785107 L43 3.521996615905247 L37.5 3.521996615905247 L37.5 -81.39170896785107 z"/>
<path fill="#ff9065" stroke="#ff9065" d="M43 -80.33181049069373 L43 4.581895093062607 L43 3.521996615905247 L43 -81.39170896785109 z"/>
<path fill="#ff9065" stroke="#ff9065" d="M37.5 -80.33181049069373 L37.5 4.581895093062607 L43 4.581895093062607 L43 -80.33181049069373 z"/>
<path fill="#ff9065" stroke="#ff9065" d="M37.5 -81.3917089678511 L37.5 -80.33181049069373 L43 -80.33181049069373 L43 -81.3917089678511 z"/>
<path fill="#ff9065" stroke="#ff9065" d="M37.5 3.5219966159052456 L43 3.5219966159052456 L43 4.581895093062605 L37.5 4.581895093062605 z"/>
<path fill="#ff9065" stroke="#ff9065" d="M43.75 -217.25363790186123 L43.75 -81.39170896785109 L43.75 -80.33181049069373 L43.75 -216.19373942470386 z"/>
<path fill="#ff9065" stroke="#ff9065" d="M49.25 -217.25363790186123 L49.25 -81.39170896785109 L43.75 -81.39170896785109 L43.75 -217.25363790186123 z"/>
<path fill="#ff9065" stroke="#ff9065" d="M49.25 -216.19373942470386 L49.25 -80.33181049069373 L49.25 -81.39170896785109 L49.25 -217.25363790186123 z"/>
<path fill="#ff9065" stroke="#ff9065" d="M43.75 -216.19373942470384 L43.75 -80.33181049069373 L49.25 -80.33181049069373 L49.25 -216.19373942470384 z"/>
<path fill="#ff9065" stroke="#ff9065" d="M43.75 -217.25363790186125 L43.75 -216.1937394247039 L49.25 -216.1937394247039 L49.25 -217.25363790186125 z"/>
<path fill="#ff9065" stroke="#ff9065" d="M43.75 -81.3917089678511 L49.25 -81.3917089678511 L49.25 -80.33181049069373 L43.75 -80.33181049069373 z"/>
<path fill="#ff9065" stroke="#ff9065" d="M43.75 -81.39170896785109 L43.75 3.521996615905247 L43.75 4.581895093062607 L43.75 -80.33181049069373 z"/>
<path fill="#ff9065" stroke="#ff9065" d="M49.25 -81.39170896785107 L49.25 3.521996615905247 L43.75 3.521996615905247 L43.75 -81.39170896785107 z"/>
<path fill="#ff9065" stroke="#ff9065" d="M49.25 -80.33181049069373 L49.25 4.581895093062607 L49.25 3.521996615905247 L49.25 -81.39170896785109 z"/>
<path fill="#ff9065" stroke="#ff9065" d="M43.75 -80.33181049069373 L43.75 4.581895093062607 L49.25 4.581895093062607 L49.25 -80.33181049069373 z"/>
<path fill="#ff9065" stroke="#ff9065" d="M43.75 -81.3917089678511 L43.75 -80.33181049069373 L49.25 -80.33181049069373 L49.25 -81.3917089678511 z"/>
<path fill="#ff9065" stroke="#ff9065" d="M43.75 3.5219966159052456 L49.25 3.5219966159052456 L49.25 4.581895093062605 L43.75 4.581895093062605 z"/>
<path fill="#ff9065" stroke="#ff9065" d="M50 -217.25363790186123 L50 -81.39170896785109 L50 -80.33181049069373 L50 -216.19373942470386 z"/>
<path fill="#ff9065" stroke="#ff9065" d="M55.5 -217.25363790186123 L55.5 -81.39170896785109 L50 -81.39170896785109 L50 -217.25363790186123 z"/>
<path fill="#ff9065" stroke="#ff9065" d="M55.5 -216.19373942470386 L55.5 -80.33181049069373 L55.5 -81.39170896785109 L55.5 -217.25363790186123 z"/>
<path fill="#ff9065" stroke="#ff9065" d="M50 -216.19373942470384 L50 -80.33181049069373 L55.5 -80.33181049069373 L55.5 -216.19373942470384 z"/>
<path fill="#ff9065" stroke="#ff9065" d="M50 -217.25363790186125 L50 -216.1937394247039 L55.5 -216.1937394247039 L55.5 -217.25363790186125 z"/>
<path fill="#ff9065" stroke="#ff9065" d="M50 -81.3917089678511 L55.5 -81.3917089678511 L55.5 -80.33181049069373 L50 -80.33181049069373 z"/>
<path fill="#ff9065" stroke="#ff9065" d="M50 -81.39170896785109 L50 3.521996615905247 L50 4.581895093062607 L50 -80.33181049069373 z"/>
<path fill="#ff9065" stroke="#ff9065" d="M55.5 -81.39170896785107 L55.5 3.521996615905247 L50 3.521996615905247 L50 -81.39170896785107 z"/>
<path fill="#ff9065" stroke="#ff9065" d="M55.5 -80.33181049069373 L55.5 4.581895093062607 L55.5 3.521996615905247 L55.5 -81.39170896785109 z"/>
<path fill="#ff9065" stroke="#ff9065" d="M50 -80.33181049069373 L50 4.581895093062607 L55.5 4.581895093062607 L55.5 -80.33181049069373 z"/>
<path fill="#ff9065" stroke="#ff9065" d="M50 -81.3917089678511 L50 -80.33181049069373 L55.5 -80.33181049069373 L55.5 -81.3917089678511 z"/>
<path fill="#ff9065" stroke="#ff9065" d="M50 3.5219966159052456 L55.5 3.5219966159052456 L55.5 4.581895093062605 L50 4.581895093062605 z"/>
<path fill="#ff9065" stroke="#ff9065" d="M56.25 -217.25363790186123 L56.25 -81.39170896785109 L56.25 -80.33181049069373 L56.25 -216.19373942470386 z"/>
<path fill="#ff9065" stroke="#ff9065" d="M61.75 -217.25363790186123 L61.75 -81.39170896785109 L56.25 -81.39170896785109 L56.25 -217.25363790186123 z"/>
<path fill="#ff9065" stroke="#ff9065" d="M61.75 -216.19373942470386 L61.75 -80.33181049069373 L61.75 -81.39170896785109 L61.75 -217.25363790186123 z"/>
<path fill="#ff9065" stroke="#ff9065" d="M56.25 -216.19373942470384 L56.25 -80.33181049069373 L61.75 -80.33181049069373 L61.75 -216.19373942470384 z"/>
<path fill="#ff9065" stroke="#ff9065" d="M56.25 -217.25363790186125 L56.25 -216.1937394247039 L61.75 -216.1937394247039 L61.75 -217.25363790186125 z"/>
<path fill="#ff9065" stroke="#ff9065" d="M56.25 -81.3917089678511 L61.75 -81.3917089678511 L61.75 -80.33181049069373 L56.25 -80.33181049069373 z"/>
<path fill="#ff9065" stroke="#ff9065" d="M56.25 -81.39170896785109 L56.25 3.521996615905247 L56.25 4.581895093062607 L56.25 -80.33181049069373 z"/>
<path fill="#ff9065" stroke="#ff9065" d="M61.75 -81.39170896785107 L61.75 3.521996615905247 L56.25 3.521996615905247 L56.25 -81.39170896785107 z"/>
<path fill="#ff9065" stroke="#ff9065" d="M61.75 -80.33181049069373 L61.75 4.581895093062607 L61.75 3.521996615905247 L61.75 -81.39170896785109 z"/>
<path fill="#ff9065" stroke="#ff9065" d="M56.25 -80.33181049069373 L56.25 4.581895093062607 L61.75 4.581895093062607 L61.75 -80.33181049069373 z"/>
<path fill="#ff9065" stroke="#ff9065" d="M56.25 -81.3917089678511 L56.25 -80.33181049069373 L61.75 -80.33181049069373 L61.75 -81.3917089678511 z"/>
<path fill="#ff9065" stroke="#ff9065" d="M56.25 3.5219966159052456 L61.75 3.5219966159052456 L61.75 4.581895093062605 L56.25 4.581895093062605 z"/>
</svg>