<?xml version="1.0" encoding="UTF-8"?>
<!-- Generated by jsxcad -->
<!DOCTYPE svg PUBLIC "-//W3C//DTD SVG 1.1 Tiny//EN" "http://www.w3.org/Graphics/SVG/1.1/DTD/svg11-tiny.dtd">
<svg baseProfile="tiny" height="72.00000000000006mm" width="312.0000000000002mm" viewBox="-2.0000000000000018 -1.5e-323 312.0000000000002 72.00000000000006" version="1.1" stroke="black" stroke-width=".1" fill="none" xmlns="http://www.w3.org/2000/svg">
<path fill="#a52a2a" stroke="#a52a2a" d="M0 0 L1.5 0 L1.5 -71.99999999999999 L0 -71.99999999999999 z"/>
<path fill="#a52a2a" stroke="#a52a2a" d="M0 0 L0 0 L0 -72 L0 -72 z"/>
<path fill="#a52a2a" stroke="#a52a2a" d="M1.5 0 L0 0 L0 -71.99999999999999 L1.5 -71.99999999999999 z"/>
<path fill="#a52a2a" stroke="#a52a2a" d="M1.5 0 L1.5 0 L1.5 -72 L1.5 -72 z"/>
<path fill="#a52a2a" stroke="#a52a2a" d="M0 -72 L0 -72 L1.5 -72 L1.5 -72 z"/>
<path fill="#a52a2a" stroke="#a52a2a" d="M0 0 L0 0 L1.5 0 L1.5 0 z"/>
<path fill="#a52a2a" stroke="#a52a2a" d="M1.5 0 L3 0 L3 -71.99999999999999 L1.5 -71.99999999999999 z"/>
<path fill="#a52a2a" stroke="#a52a2a" d="M1.5 0 L1.5 0 L1.5 -72 L1.5 -72 z"/>
<path fill="#a52a2a" stroke="#a52a2a" d="M3 0 L1.5 0 L1.5 -71.99999999999999 L3 -71.99999999999999 z"/>
<path fill="#a52a2a" stroke="#a52a2a" d="M3 0 L3 0 L3 -72 L3 -72 z"/>
<path fill="#a52a2a" stroke="#a52a2a" d="M1.5 -72 L3 -72 L3 -72 L1.5 -72 z"/>
<path fill="#a52a2a" stroke="#a52a2a" d="M3 0 L1.5 0 L1.5 0 L3 0 z"/>
<path fill="#a52a2a" stroke="#a52a2a" d="M17.75 0 L19.25 0 L19.25 -71.99999999999999 L17.75 -71.99999999999999 z"/>
<path fill="#a52a2a" stroke="#a52a2a" d="M17.75 0 L17.75 0 L17.75 -72 L17.75 -72 z"/>
<path fill="#a52a2a" stroke="#a52a2a" d="M19.25 0 L17.75 0 L17.75 -71.99999999999999 L19.25 -71.99999999999999 z"/>
<path fill="#a52a2a" stroke="#a52a2a" d="M19.25 0 L19.25 0 L19.25 -72 L19.25 -72 z"/>
<path fill="#a52a2a" stroke="#a52a2a" d="M17.75 -72 L19.25 -72 L19.25 -72 L17.75 -72 z"/>
<path fill="#a52a2a" stroke="#a52a2a" d="M19.25 0 L17.75 0 L17.75 0 L19.25 0 z"/>
<path fill="#a52a2a" stroke="#a52a2a" d="M34 0 L35.5 0 L35.5 -71.99999999999999 L34 -71.99999999999999 z"/>
<path fill="#a52a2a" stroke="#a52a2a" d="M34 0 L34 0 L34 -72 L34 -72 z"/>
<path fill="#a52a2a" stroke="#a52a2a" d="M35.5 0 L34 0 L34 -71.99999999999999 L35.5 -71.99999999999999 z"/>
<path fill="#a52a2a" stroke="#a52a2a" d="M35.5 0 L35.5 0 L35.5 -72 L35.5 -72 z"/>
<path fill="#a52a2a" stroke="#a52a2a" d="M34 -72 L35.5 -72 L35.5 -72 L34 -72 z"/>
<path fill="#a52a2a" stroke="#a52a2a" d="M35.5 0 L34 0 L34 0 L35.5 0 z"/>
<path fill="#a52a2a" stroke="#a52a2a" d="M50.25 0 L51.75 0 L51.75 -71.99999999999999 L50.25 -71.99999999999999 z"/>
<path fill="#a52a2a" stroke="#a52a2a" d="M50.25 0 L50.25 0 L50.25 -72 L50.25 -72 z"/>
<path fill="#a52a2a" stroke="#a52a2a" d="M51.75 0 L50.25 0 L50.25 -71.99999999999999 L51.75 -71.99999999999999 z"/>
<path fill="#a52a2a" stroke="#a52a2a" d="M51.75 0 L51.75 0 L51.75 -72 L51.75 -72 z"/>
<path fill="#a52a2a" stroke="#a52a2a" d="M50.25 -72 L51.75 -72 L51.75 -72 L50.25 -72 z"/>
<path fill="#a52a2a" stroke="#a52a2a" d="M51.75 0 L50.25 0 L50.25 0 L51.75 0 z"/>
<path fill="#a52a2a" stroke="#a52a2a" d="M66.5 0 L68 0 L68 -71.99999999999999 L66.5 -71.99999999999999 z"/>
<path fill="#a52a2a" stroke="#a52a2a" d="M66.5 0 L66.5 0 L66.5 -72 L66.5 -72 z"/>
<path fill="#a52a2a" stroke="#a52a2a" d="M68 0 L66.5 0 L66.5 -71.99999999999999 L68 -71.99999999999999 z"/>
<path fill="#a52a2a" stroke="#a52a2a" d="M68 0 L68 0 L68 -72 L68 -72 z"/>
<path fill="#a52a2a" stroke="#a52a2a" d="M66.5 -72 L68 -72 L68 -72 L66.5 -72 z"/>
<path fill="#a52a2a" stroke="#a52a2a" d="M68 0 L66.5 0 L66.5 0 L68 0 z"/>
<path fill="#a52a2a" stroke="#a52a2a" d="M82.75 0 L84.25 0 L84.25 -71.99999999999999 L82.75 -71.99999999999999 z"/>
<path fill="#a52a2a" stroke="#a52a2a" d="M82.75 0 L82.75 0 L82.75 -72 L82.75 -72 z"/>
<path fill="#a52a2a" stroke="#a52a2a" d="M84.25 0 L82.75 0 L82.75 -71.99999999999999 L84.25 -71.99999999999999 z"/>
<path fill="#a52a2a" stroke="#a52a2a" d="M84.25 0 L84.25 0 L84.25 -72 L84.25 -72 z"/>
<path fill="#a52a2a" stroke="#a52a2a" d="M82.75 -72 L84.25 -72 L84.25 -72 L82.75 -72 z"/>
<path fill="#a52a2a" stroke="#a52a2a" d="M84.25 0 L82.75 0 L82.75 0 L84.25 0 z"/>
<path fill="#a52a2a" stroke="#a52a2a" d="M99 0 L100.5 0 L100.5 -71.99999999999999 L99 -71.99999999999999 z"/>
<path fill="#a52a2a" stroke="#a52a2a" d="M99 0 L99 0 L99 -72 L99 -72 z"/>
<path fill="#a52a2a" stroke="#a52a2a" d="M100.5 0 L99 0 L99 -71.99999999999999 L100.5 -71.99999999999999 z"/>
<path fill="#a52a2a" stroke="#a52a2a" d="M100.5 0 L100.5 0 L100.5 -72 L100.5 -72 z"/>
<path fill="#a52a2a" stroke="#a52a2a" d="M99 -72 L100.5 -72 L100.5 -72 L99 -72 z"/>
<path fill="#a52a2a" stroke="#a52a2a" d="M100.5 0 L99 0 L99 0 L100.5 0 z"/>
<path fill="#a52a2a" stroke="#a52a2a" d="M115.25 0 L116.75 0 L116.75 -71.99999999999999 L115.25 -71.99999999999999 z"/>
<path fill="#a52a2a" stroke="#a52a2a" d="M115.25 0 L115.25 0 L115.25 -72 L115.25 -72 z"/>
<path fill="#a52a2a" stroke="#a52a2a" d="M116.75 0 L115.25 0 L115.25 -71.99999999999999 L116.75 -71.99999999999999 z"/>
<path fill="#a52a2a" stroke="#a52a2a" d="M116.75 0 L116.75 0 L116.75 -72 L116.75 -72 z"/>
<path fill="#a52a2a" stroke="#a52a2a" d="M115.25 -72 L116.75 -72 L116.75 -72 L115.25 -72 z"/>
<path fill="#a52a2a" stroke="#a52a2a" d="M116.75 0 L115.25 0 L115.25 0 L116.75 0 z"/>
<path fill="#a52a2a" stroke="#a52a2a" d="M131.5 0 L133 0 L133 -71.99999999999999 L131.5 -71.99999999999999 z"/>
<path fill="#a52a2a" stroke="#a52a2a" d="M131.5 0 L131.5 0 L131.5 -72 L131.5 -72 z"/>
<path fill="#a52a2a" stroke="#a52a2a" d="M133 0 L131.5 0 L131.5 -71.99999999999999 L133 -71.99999999999999 z"/>
<path fill="#a52a2a" stroke="#a52a2a" d="M133 0 L133 0 L133 -72 L133 -72 z"/>
<path fill="#a52a2a" stroke="#a52a2a" d="M131.5 -72 L133 -72 L133 -72 L131.5 -72 z"/>
<path fill="#a52a2a" stroke="#a52a2a" d="M133 0 L131.5 0 L131.5 0 L133 0 z"/>
<path fill="#a52a2a" stroke="#a52a2a" d="M147.75 0 L149.25 0 L149.25 -71.99999999999999 L147.75 -71.99999999999999 z"/>
<path fill="#a52a2a" stroke="#a52a2a" d="M147.75 0 L147.75 0 L147.75 -72 L147.75 -72 z"/>
<path fill="#a52a2a" stroke="#a52a2a" d="M149.25 0 L147.75 0 L147.75 -71.99999999999999 L149.25 -71.99999999999999 z"/>
<path fill="#a52a2a" stroke="#a52a2a" d="M149.25 0 L149.25 0 L149.25 -72 L149.25 -72 z"/>
<path fill="#a52a2a" stroke="#a52a2a" d="M147.75 -72 L149.25 -72 L149.25 -72 L147.75 -72 z"/>
<path fill="#a52a2a" stroke="#a52a2a" d="M149.25 0 L147.75 0 L147.75 0 L149.25 0 z"/>
<path fill="#a52a2a" stroke="#a52a2a" d="M164 0 L165.5 0 L165.5 -71.99999999999999 L164 -71.99999999999999 z"/>
<path fill="#a52a2a" stroke="#a52a2a" d="M164 0 L164 0 L164 -72 L164 -72 z"/>
<path fill="#a52a2a" stroke="#a52a2a" d="M165.5 0 L164 0 L164 -71.99999999999999 L165.5 -71.99999999999999 z"/>
<path fill="#a52a2a" stroke="#a52a2a" d="M165.5 0 L165.5 0 L165.5 -72 L165.5 -72 z"/>
<path fill="#a52a2a" stroke="#a52a2a" d="M164 -72 L165.5 -72 L165.5 -72 L164 -72 z"/>
<path fill="#a52a2a" stroke="#a52a2a" d="M165.5 0 L164 0 L164 0 L165.5 0 z"/>
<path fill="#a52a2a" stroke="#a52a2a" d="M180.25 0 L181.75 0 L181.75 -71.99999999999999 L180.25 -71.99999999999999 z"/>
<path fill="#a52a2a" stroke="#a52a2a" d="M180.25 0 L180.25 0 L180.25 -72 L180.25 -72 z"/>
<path fill="#a52a2a" stroke="#a52a2a" d="M181.75 0 L180.25 0 L180.25 -71.99999999999999 L181.75 -71.99999999999999 z"/>
<path fill="#a52a2a" stroke="#a52a2a" d="M181.75 0 L181.75 0 L181.75 -72 L181.75 -72 z"/>
<path fill="#a52a2a" stroke="#a52a2a" d="M180.25 -72 L181.75 -72 L181.75 -72 L180.25 -72 z"/>
<path fill="#a52a2a" stroke="#a52a2a" d="M181.75 0 L180.25 0 L180.25 0 L181.75 0 z"/>
<path fill="#a52a2a" stroke="#a52a2a" d="M196.5 0 L198 0 L198 -71.99999999999999 L196.5 -71.99999999999999 z"/>
<path fill="#a52a2a" stroke="#a52a2a" d="M196.5 0 L196.5 0 L196.5 -72 L196.5 -72 z"/>
<path fill="#a52a2a" stroke="#a52a2a" d="M198 0 L196.5 0 L196.5 -71.99999999999999 L198 -71.99999999999999 z"/>
<path fill="#a52a2a" stroke="#a52a2a" d="M198 0 L198 0 L198 -72 L198 -72 z"/>
<path fill="#a52a2a" stroke="#a52a2a" d="M196.5 -72 L198 -72 L198 -72 L196.5 -72 z"/>
<path fill="#a52a2a" stroke="#a52a2a" d="M198 0 L196.5 0 L196.5 0 L198 0 z"/>
<path fill="#a52a2a" stroke="#a52a2a" d="M212.75 0 L214.25 0 L214.25 -71.99999999999999 L212.75 -71.99999999999999 z"/>
<path fill="#a52a2a" stroke="#a52a2a" d="M212.75 0 L212.75 0 L212.75 -72 L212.75 -72 z"/>
<path fill="#a52a2a" stroke="#a52a2a" d="M214.25 0 L212.75 0 L212.75 -71.99999999999999 L214.25 -71.99999999999999 z"/>
<path fill="#a52a2a" stroke="#a52a2a" d="M214.25 0 L214.25 0 L214.25 -72 L214.25 -72 z"/>
<path fill="#a52a2a" stroke="#a52a2a" d="M212.75 -72 L214.25 -72 L214.25 -72 L212.75 -72 z"/>
<path fill="#a52a2a" stroke="#a52a2a" d="M214.25 0 L212.75 0 L212.75 0 L214.25 0 z"/>
<path fill="#a52a2a" stroke="#a52a2a" d="M229 0 L230.5 0 L230.5 -71.99999999999999 L229 -71.99999999999999 z"/>
<path fill="#a52a2a" stroke="#a52a2a" d="M229 0 L229 0 L229 -72 L229 -72 z"/>
<path fill="#a52a2a" stroke="#a52a2a" d="M230.5 0 L229 0 L229 -71.99999999999999 L230.5 -71.99999999999999 z"/>
<path fill="#a52a2a" stroke="#a52a2a" d="M230.5 0 L230.5 0 L230.5 -72 L230.5 -72 z"/>
<path fill="#a52a2a" stroke="#a52a2a" d="M229 -72 L230.5 -72 L230.5 -72 L229 -72 z"/>
<path fill="#a52a2a" stroke="#a52a2a" d="M230.5 0 L229 0 L229 0 L230.5 0 z"/>
<path fill="#a52a2a" stroke="#a52a2a" d="M245.25 0 L246.75 0 L246.75 -71.99999999999999 L245.25 -71.99999999999999 z"/>
<path fill="#a52a2a" stroke="#a52a2a" d="M245.25 0 L245.25 0 L245.25 -72 L245.25 -72 z"/>
<path fill="#a52a2a" stroke="#a52a2a" d="M246.75 0 L245.25 0 L245.25 -71.99999999999999 L246.75 -71.99999999999999 z"/>
<path fill="#a52a2a" stroke="#a52a2a" d="M246.75 0 L246.75 0 L246.75 -72 L246.75 -72 z"/>
<path fill="#a52a2a" stroke="#a52a2a" d="M245.25 -72 L246.75 -72 L246.75 -72 L245.25 -72 z"/>
<path fill="#a52a2a" stroke="#a52a2a" d="M246.75 0 L245.25 0 L245.25 0 L246.75 0 z"/>
<path fill="#a52a2a" stroke="#a52a2a" d="M261.5 0 L263 0 L263 -71.99999999999999 L261.5 -71.99999999999999 z"/>
<path fill="#a52a2a" stroke="#a52a2a" d="M261.5 0 L261.5 0 L261.5 -72 L261.5 -72 z"/>
<path fill="#a52a2a" stroke="#a52a2a" d="M263 0 L261.5 0 L261.5 -71.99999999999999 L263 -71.99999999999999 z"/>
<path fill="#a52a2a" stroke="#a52a2a" d="M263 0 L263 0 L263 -72 L263 -72 z"/>
<path fill="#a52a2a" stroke="#a52a2a" d="M261.5 -72 L263 -72 L263 -72 L261.5 -72 z"/>
<path fill="#a52a2a" stroke="#a52a2a" d="M263 0 L261.5 0 L261.5 0 L263 0 z"/>
<path fill="#a52a2a" stroke="#a52a2a" d="M277.75 0 L279.25 0 L279.25 -71.99999999999999 L277.75 -71.99999999999999 z"/>
<path fill="#a52a2a" stroke="#a52a2a" d="M277.75 0 L277.75 0 L277.75 -72 L277.75 -72 z"/>
<path fill="#a52a2a" stroke="#a52a2a" d="M279.25 0 L277.75 0 L277.75 -71.99999999999999 L279.25 -71.99999999999999 z"/>
<path fill="#a52a2a" stroke="#a52a2a" d="M279.25 0 L279.25 0 L279.25 -72 L279.25 -72 z"/>
<path fill="#a52a2a" stroke="#a52a2a" d="M277.75 -72 L279.25 -72 L279.25 -72 L277.75 -72 z"/>
<path fill="#a52a2a" stroke="#a52a2a" d="M279.25 0 L277.75 0 L277.75 0 L279.25 0 z"/>
<path fill="#a52a2a" stroke="#a52a2a" d="M279.5 -71.99999999999999 L279.5 0 L281 0 L281 -71.99999999999999 z"/>
<path fill="#a52a2a" stroke="#a52a2a" d="M279.5 -72 L279.5 0 L279.5 0 L279.5 -72 z"/>
<path fill="#a52a2a" stroke="#a52a2a" d="M281 -71.99999999999999 L281 0 L279.5 0 L279.5 -71.99999999999999 z"/>
<path fill="#a52a2a" stroke="#a52a2a" d="M281 -72 L281 0 L281 0 L281 -72 z"/>
<path fill="#a52a2a" stroke="#a52a2a" d="M279.5 -72 L281 -72 L281 -72 L279.5 -72 z"/>
<path fill="#a52a2a" stroke="#a52a2a" d="M279.5 0 L279.5 0 L281 0 L281 0 z"/>
<path fill="#b0e0e6" stroke="#b0e0e6" d="M310 0 L118 0 L118 0 L310 0 z"/>
<path fill="#b0e0e6" stroke="#b0e0e6" d="M310 -5.499999999999999 L118 -5.499999999999999 L118 0 L310 0 z"/>
<path fill="#b0e0e6" stroke="#b0e0e6" d="M310 -5.5 L118 -5.5 L118 -5.5 L310 -5.5 z"/>
<path fill="#b0e0e6" stroke="#b0e0e6" d="M310 0 L118 0 L118 -5.499999999999999 L310 -5.499999999999999 z"/>
<path fill="#b0e0e6" stroke="#b0e0e6" d="M310 0 L310 0 L310 -5.5 L310 -5.5 z"/>
<path fill="#b0e0e6" stroke="#b0e0e6" d="M118 0 L118 -5.5 L118 -5.5 L118 0 z"/>
<path fill="#b0e0e6" stroke="#b0e0e6" d="M118 0 L-2 0 L-2 0 L118 0 z"/>
<path fill="#b0e0e6" stroke="#b0e0e6" d="M118 -5.499999999999999 L-2 -5.499999999999999 L-2 0 L118 0 z"/>
<path fill="#b0e0e6" stroke="#b0e0e6" d="M118 -5.5 L-2 -5.5 L-2 -5.5 L118 -5.5 z"/>
<path fill="#b0e0e6" stroke="#b0e0e6" d="M118 0 L-2 0 L-2 -5.499999999999999 L118 -5.499999999999999 z"/>
<path fill="#b0e0e6" stroke="#b0e0e6" d="M118 0 L118 0 L118 -5.5 L118 -5.5 z"/>
<path fill="#b0e0e6" stroke="#b0e0e6" d="M-2 0 L-2 -5.5 L-2 -5.5 L-2 0 z"/>
</svg>